<svg viewBox="300.619 115.176 610.75 596.982" width="6571.45" height="6423.31" style="background-color:#FFFFFFFF" xmlns="http://www.w3.org/2000/svg" xmlns:xlink="http://www.w3.org/1999/xlink">

<path d="M 556.389 168.722 L 556.389 168.722 L 556.634 168.796 L 556.952 168.918 L 557.343 169.065 L 557.539 169.138 L 557.735 169.236 L 557.93 169.309 L 558.102 169.383 L 558.297 169.505 L 558.42 169.627 L 558.542 169.75 L 558.615 169.897 L 558.64 170.092 L 558.664 170.312 L 558.615 170.582 L 558.507 170.84 L 558.378 171.148 L 558.203 171.575 L 557.95 172.175 L 557.596 172.917 L 557.499 173.112 L 557.025 173.883 L 556.401 174.668 L 555.621 175.482 L 554.673 176.466 L 553.74 177.706 L 552.884 179.11 L 552.082 180.608 L 551.292 182.124 L 550.471 183.659 L 549.57 185.339 L 548.585 187.217 L 547.535 189.256 L 546.428 191.394 L 545.24 193.664 L 543.975 196.084 L 542.67 198.617 L 541.366 201.195 L 540.046 203.813 L 538.699 206.445 L 537.341 209.03 L 535.986 211.506 L 534.614 213.877 L 533.243 216.115 L 531.946 218.175 L 530.793 220.014 L 529.783 221.651 L 528.89 223.099 L 528.105 224.347 L 527.41 225.398 L 526.789 226.292 L 526.266 227.07 L 525.912 227.812 L 525.812 228.671 L 525.078 228.006 L 525.868 228.56 L 526.025 229.39 L 524.848 228.564 L 526.066 229.162 L 526.266 229.439 L 524.834 228.735 L 524.009 227.861 L 524.095 227.727 L 524.246 227.512 L 524.406 227.255 L 524.65 227.328 L 524.968 227.45 L 525.359 227.597 L 525.554 227.67 L 525.75 227.768 L 525.945 227.841 L 526.116 227.914 L 526.312 228.037 L 526.434 228.159 L 526.556 228.281 L 526.629 228.428 L 526.654 228.623 L 526.678 228.843 L 526.629 229.112 L 526.532 229.307 L 526.395 229.587 L 526.265 229.822 L 526.12 229.9 L 525.756 230.022 L 525.32 229.973 L 524.955 229.803 L 524.591 229.536 L 524.324 229.245 L 524.13 228.929 L 524.009 228.59 L 523.985 228.226 L 524.009 227.861 L 524.146 227.821 L 524.606 227.507 L 525.111 227.039 L 525.603 226.43 L 526.154 225.679 L 526.789 224.799 L 527.511 223.773 L 528.326 222.555 L 529.233 221.12 L 530.245 219.484 L 531.396 217.644 L 532.693 215.583 L 534.063 213.345 L 535.436 210.974 L 536.79 208.498 L 538.148 205.913 L 539.496 203.281 L 540.815 200.663 L 542.119 198.085 L 543.424 195.552 L 544.689 193.132 L 545.877 190.862 L 546.985 188.725 L 548.036 186.687 L 549.02 184.807 L 549.909 183.116 L 550.703 181.557 L 551.469 180.017 L 552.232 178.48 L 552.975 176.968 L 553.654 175.482 L 554.191 174.102 L 554.623 172.952 L 555.02 171.947 L 555.385 171.071 L 555.713 170.307 L 555.97 169.711 L 556.151 169.288 L 556.281 168.981 L 556.389 168.722 Z" style='fill:rgba(0,0,0,1); stroke:none' />

<path d="M 556.793 147.557 L 556.793 147.557 L 556.426 147.68 L 555.985 147.631 L 555.617 147.459 L 555.25 147.19 L 554.98 146.896 L 554.784 146.577 L 554.662 146.234 L 554.637 145.867 L 554.662 145.499 L 555.179 145.085 L 555.731 144.644 L 556.448 144.111 L 557.404 143.475 L 558.568 142.776 L 559.857 142.061 L 561.129 141.273 L 562.341 140.362 L 563.576 139.338 L 564.882 138.265 L 566.25 137.203 L 567.649 136.185 L 569.092 135.2 L 570.586 134.247 L 572.103 133.337 L 573.629 132.471 L 575.196 131.63 L 576.807 130.81 L 578.43 130.027 L 580.032 129.296 L 581.616 128.611 L 583.162 127.981 L 584.654 127.445 L 586.092 127.06 L 587.497 126.84 L 588.863 126.768 L 590.151 126.831 L 591.333 127.042 L 591.412 127.066 L 592.492 127.44 L 592.599 127.481 L 592.73 127.53 L 592.796 127.555 L 592.861 127.587 L 592.927 127.612 L 592.984 127.637 L 593.939 128.154 L 594.004 128.195 L 594.778 128.797 L 594.818 128.837 L 594.857 128.876 L 595.452 129.535 L 595.911 130.264 L 595.934 130.309 L 596.309 131.106 L 596.618 131.954 L 596.852 132.846 L 596.861 132.919 L 596.87 133 L 596.991 133.964 L 596.968 135.038 L 596.802 136.274 L 596.783 136.375 L 596.452 137.749 L 595.938 139.229 L 595.275 140.778 L 594.497 142.38 L 594.471 142.432 L 593.564 144.102 L 592.487 145.89 L 591.25 147.797 L 589.885 149.783 L 588.414 151.79 L 586.816 153.794 L 585.109 155.781 L 583.347 157.748 L 581.555 159.721 L 579.695 161.743 L 577.753 163.797 L 575.773 165.842 L 573.811 167.862 L 571.889 169.863 L 570.022 171.8 L 568.225 173.612 L 566.493 175.291 L 564.796 176.914 L 563.137 178.556 L 561.565 180.224 L 560.114 181.881 L 558.747 183.51 L 557.425 185.096 L 556.131 186.629 L 554.871 188.109 L 553.64 189.555 L 552.469 190.931 L 551.412 192.169 L 550.501 193.232 L 549.72 194.144 L 549.029 194.957 L 548.398 195.707 L 547.821 196.399 L 547.311 197.049 L 546.888 197.685 L 546.541 198.325 L 546.382 198.378 L 546.192 198.357 L 546.033 198.283 L 545.875 198.166 L 545.758 198.04 L 545.674 197.902 L 545.621 197.754 L 545.611 197.596 L 545.621 197.437 L 546.129 196.952 L 546.643 196.404 L 547.195 195.795 L 547.797 195.127 L 548.452 194.4 L 549.161 193.605 L 549.95 192.7 L 550.863 191.639 L 551.92 190.4 L 553.089 189.023 L 554.32 187.577 L 555.58 186.097 L 556.875 184.565 L 558.196 182.978 L 559.563 181.349 L 561.015 179.692 L 562.586 178.024 L 564.245 176.382 L 565.943 174.759 L 567.674 173.08 L 569.471 171.268 L 571.338 169.331 L 573.26 167.33 L 575.223 165.311 L 577.202 163.265 L 579.144 161.211 L 581.004 159.189 L 582.796 157.216 L 584.558 155.249 L 586.265 153.262 L 587.863 151.258 L 589.335 149.252 L 590.701 147.267 L 591.941 145.362 L 593.016 143.574 L 593.908 141.889 L 594.641 140.248 L 595.233 138.64 L 595.672 137.098 L 595.945 135.675 L 596.08 134.417 L 596.07 134.56 L 596.098 133.489 L 596.107 133.631 L 596.03 132.684 L 595.856 131.803 L 595.597 130.965 L 595.863 131.012 L 595.636 131.075 L 595.285 130.279 L 595.504 130.219 L 595.346 130.377 L 594.88 129.649 L 594.265 128.995 L 594.431 128.829 L 594.352 129.089 L 593.564 128.497 L 593.686 128.586 L 592.73 128.071 L 592.853 128.128 L 591.758 127.726 L 590.543 127.462 L 590.674 127.476 L 589.341 127.359 L 587.953 127.404 L 586.544 127.618 L 585.108 128.006 L 585.203 127.975 L 583.713 128.512 L 582.167 129.143 L 580.584 129.828 L 578.981 130.559 L 577.358 131.342 L 575.747 132.162 L 574.18 133.003 L 572.653 133.869 L 571.137 134.78 L 569.646 135.734 L 568.205 136.721 L 566.804 137.739 L 565.426 138.79 L 564.103 139.846 L 562.882 140.884 L 561.816 141.936 L 560.917 143.086 L 560.121 144.276 L 559.319 145.324 L 558.548 146.139 L 557.883 146.722 L 557.326 147.159 L 556.793 147.557 Z" style='fill:rgba(0,0,0,1); stroke:none' />

<path d="M 553.697 218.34 L 553.697 218.34 L 553.318 218.466 L 552.865 218.416 L 552.486 218.239 L 552.108 217.962 L 551.831 217.659 L 551.629 217.332 L 551.503 216.978 L 551.477 216.6 L 551.503 216.222 L 552.159 215.897 L 552.92 215.544 L 553.818 215.153 L 554.751 214.721 L 555.614 214.236 L 556.356 213.67 L 556.985 213.016 L 557.558 212.303 L 558.12 211.565 L 558.692 210.795 L 559.291 209.965 L 559.91 209.065 L 560.498 208.148 L 561.004 207.264 L 561.405 206.39 L 561.692 205.471 L 561.868 204.562 L 561.96 203.91 L 562.009 203.517 L 562.044 203.267 L 562.071 203.071 L 562.911 203.96 L 562.046 203.441 L 562.056 203.261 L 562.918 203.778 L 562.081 203.63 L 562.062 203.467 L 562.896 203.614 L 562.185 203.81 L 562.132 203.679 L 562.841 203.484 L 562.596 204.291 L 562.506 204.202 L 562.75 203.395 L 563.24 204.643 L 563.109 204.601 L 562.618 203.351 L 563.55 204.651 L 563.37 204.659 L 563.111 204.722 L 562.177 203.419 L 563.48 204.599 L 563.088 204.727 L 562.513 204.924 L 561.752 205.19 L 560.815 205.548 L 559.713 206.054 L 558.451 206.732 L 557.101 207.543 L 555.784 208.422 L 554.559 209.34 L 553.408 210.298 L 552.32 211.284 L 551.286 212.27 L 550.304 213.235 L 549.365 214.187 L 548.46 215.142 L 547.596 216.108 L 546.774 217.086 L 545.992 218.099 L 545.261 219.156 L 544.6 220.232 L 544.024 221.262 L 543.54 222.201 L 543.102 221.804 L 543.573 222.135 L 543.197 222.966 L 542.957 223.717 L 542.906 224.436 L 542.261 223.984 L 542.928 224.312 L 543.121 225.018 L 542.239 224.584 L 543.091 224.763 L 543.476 225.376 L 543.878 225.834 L 542.56 225.556 L 543.693 225.579 L 544.056 225.865 L 542.848 225.84 L 543.736 225.618 L 544.125 225.81 L 543.226 226.035 L 542.377 225.136 L 542.877 225.276 L 543.519 225.354 L 544.297 225.345 L 545.181 225.225 L 546.137 224.962 L 547.141 224.535 L 548.191 223.94 L 549.274 223.178 L 550.329 222.277 L 551.306 221.283 L 552.196 220.226 L 553.034 219.126 L 553.872 217.993 L 554.749 216.837 L 555.66 215.681 L 556.573 214.561 L 557.463 213.496 L 558.331 212.473 L 559.176 211.484 L 559.987 210.54 L 560.735 209.655 L 561.392 208.822 L 561.924 208.036 L 562.316 207.309 L 562.603 206.684 L 562.838 206.2 L 563.042 205.826 L 563.213 205.536 L 563.35 205.36 L 563.458 205.301 L 563.703 205.375 L 564.02 205.497 L 564.411 205.643 L 564.606 205.717 L 564.801 205.814 L 564.997 205.887 L 565.168 205.961 L 565.363 206.083 L 565.456 206.139 L 565.58 206.262 L 565.703 206.385 L 565.777 206.533 L 565.802 206.731 L 565.826 206.953 L 565.837 207.087 L 565.787 207.358 L 565.712 207.553 L 565.613 207.75 L 565.444 208.031 L 565.163 208.44 L 564.771 208.981 L 564.296 209.611 L 563.781 210.284 L 563.245 210.972 L 562.693 211.654 L 562.122 212.334 L 561.51 213.045 L 560.832 213.822 L 560.122 214.668 L 559.448 215.583 L 558.81 216.562 L 558.178 217.567 L 557.552 218.574 L 556.944 219.579 L 556.388 220.548 L 555.91 221.445 L 555.54 222.283 L 555.306 223.083 L 555.182 223.821 L 555.115 224.461 L 555.063 224.971 L 555.007 225.359 L 553.776 224.244 L 555.1 225.173 L 555.04 225.452 L 554.989 225.666 L 553.599 224.69 L 555.038 225.397 L 555.019 225.561 L 553.574 224.85 L 554.97 225.144 L 555.006 225.256 L 553.607 224.961 L 553.017 224.151 L 553.14 224.185 L 553.731 224.998 L 552.894 224.112 L 553.163 224.027 L 553.645 223.771 L 554.39 223.301 L 555.425 222.582 L 556.721 221.601 L 558.138 220.434 L 559.554 219.129 L 560.952 217.672 L 562.392 216.037 L 563.918 214.234 L 565.543 212.29 L 567.257 210.218 L 569.043 208.007 L 570.86 205.694 L 572.67 203.353 L 574.46 201.032 L 576.253 198.726 L 578.05 196.445 L 579.819 194.226 L 581.518 192.097 L 583.135 190.039 L 584.678 188.028 L 586.148 186.076 L 587.549 184.207 L 588.885 182.421 L 590.156 180.707 L 591.346 179.051 L 592.434 177.454 L 593.42 175.926 L 594.31 174.487 L 595.118 173.145 L 595.879 171.875 L 595.948 171.895 L 596.037 171.93 L 596.146 171.971 L 596.201 171.991 L 596.256 172.019 L 596.311 172.039 L 596.359 172.06 L 596.414 172.094 L 596.448 172.128 L 596.482 172.163 L 596.503 172.204 L 596.509 172.258 L 596.516 172.32 L 596.503 172.396 L 596.475 172.45 L 595.694 173.701 L 594.869 175.027 L 593.971 176.458 L 592.983 177.984 L 591.895 179.581 L 590.706 181.238 L 589.436 182.953 L 588.1 184.739 L 586.699 186.608 L 585.228 188.56 L 583.686 190.571 L 582.068 192.628 L 580.37 194.758 L 578.601 196.977 L 576.804 199.259 L 575.011 201.565 L 573.221 203.886 L 571.411 206.226 L 569.589 208.535 L 567.795 210.738 L 566.073 212.802 L 564.457 214.754 L 562.994 216.619 L 561.71 218.404 L 560.567 220.106 L 559.478 221.727 L 558.388 223.21 L 557.346 224.436 L 556.467 225.307 L 555.785 225.838 L 555.313 226.103 L 554.942 226.227 L 554.667 226.304 L 554.224 226.255 L 554.098 226.213 L 553.729 226.042 L 553.361 225.771 L 553.091 225.477 L 552.894 225.158 L 552.772 224.814 L 552.741 224.703 L 552.716 224.336 L 552.741 223.968 L 552.77 223.812 L 552.849 223.621 L 552.986 223.408 L 553.2 223.173 L 553.501 222.902 L 553.89 222.574 L 554.338 222.149 L 554.81 221.578 L 555.284 220.841 L 555.779 219.96 L 556.315 218.972 L 556.883 217.929 L 557.473 216.887 L 558.089 215.865 L 558.709 214.87 L 559.299 213.874 L 559.839 212.864 L 560.321 211.897 L 560.746 211.006 L 561.148 210.162 L 561.55 209.335 L 561.956 208.523 L 562.358 207.739 L 562.739 207.019 L 563.071 206.42 L 563.319 205.979 L 563.474 205.684 L 563.542 205.483 L 564.381 206.371 L 563.542 206.223 L 563.532 206.089 L 564.371 206.237 L 564.494 207.323 L 564.411 207.255 L 564.289 206.181 L 565.217 207.475 L 565.045 207.455 L 564.15 206.208 L 565.398 207.337 L 565.101 207.359 L 564.693 207.42 L 564.241 207.555 L 563.747 207.788 L 563.186 208.149 L 562.585 208.675 L 561.958 209.368 L 561.292 210.192 L 560.571 211.104 L 559.791 212.078 L 558.961 213.081 L 558.087 214.098 L 557.18 215.147 L 556.253 216.253 L 555.335 217.402 L 554.449 218.549 L 553.596 219.669 L 552.754 220.765 L 551.902 221.858 L 551.028 222.951 L 550.141 224.014 L 549.278 224.99 L 548.466 225.814 L 547.687 226.458 L 546.939 226.922 L 546.636 227.023 L 545.9 227.327 L 545.228 227.465 L 544.649 227.466 L 544.206 227.417 L 543.725 227.308 L 543.351 227.134 L 542.972 226.925 L 542.602 226.654 L 542.329 226.319 L 542.074 226.042 L 541.889 225.741 L 541.779 225.297 L 541.68 225.021 L 541.73 224.494 L 541.715 224.269 L 541.866 223.747 L 541.877 223.577 L 542.104 223.005 L 542.414 222.312 L 542.821 221.506 L 543.337 220.599 L 543.952 219.606 L 544.646 218.563 L 545.393 217.521 L 546.183 216.515 L 547.018 215.55 L 547.898 214.599 L 548.814 213.656 L 549.762 212.712 L 550.749 211.752 L 551.776 210.759 L 552.826 209.736 L 553.884 208.689 L 554.96 207.626 L 556.077 206.555 L 557.206 205.53 L 558.243 204.635 L 559.123 203.915 L 559.857 203.36 L 560.476 202.957 L 560.975 202.687 L 561.341 202.534 L 561.599 202.47 L 561.784 202.468 L 562.03 202.541 L 562.163 202.587 L 562.481 202.709 L 562.873 202.856 L 563.069 202.93 L 563.264 203.027 L 563.46 203.101 L 563.632 203.174 L 563.827 203.297 L 563.95 203.419 L 564.072 203.541 L 564.162 203.631 L 564.236 203.777 L 564.293 203.908 L 564.318 204.104 L 564.345 204.27 L 564.37 204.491 L 564.369 204.677 L 564.329 204.864 L 564.28 205.135 L 564.167 205.319 L 563.912 205.541 L 563.439 205.874 L 563.37 206.012 L 562.735 206.478 L 562.16 207.119 L 561.685 207.921 L 561.243 208.867 L 560.781 209.906 L 560.307 210.945 L 559.824 211.888 L 559.303 212.708 L 558.715 213.419 L 558.063 214.056 L 557.404 214.683 L 556.785 215.366 L 556.189 216.109 L 555.567 216.842 L 554.917 217.473 L 554.289 217.954 L 553.697 218.34 Z" style='fill:rgba(0,0,0,1); stroke:none' />

<path d="M 597.628 166.725 L 597.628 166.725 L 597.876 166.8 L 598.199 166.924 L 598.596 167.073 L 598.794 167.147 L 598.993 167.246 L 599.191 167.321 L 599.365 167.395 L 599.564 167.519 L 599.688 167.643 L 599.812 167.767 L 599.886 167.916 L 599.911 168.115 L 599.936 168.338 L 599.886 168.611 L 599.787 168.81 L 599.477 169.353 L 599.055 169.996 L 598.504 170.699 L 597.882 171.359 L 597.278 172.032 L 596.684 172.756 L 596.076 173.523 L 595.4 174.374 L 594.616 175.388 L 593.771 176.522 L 592.945 177.709 L 592.158 178.952 L 591.366 180.281 L 590.499 181.718 L 589.551 183.239 L 588.549 184.81 L 587.488 186.448 L 586.341 188.224 L 585.122 190.117 L 583.872 192.041 L 582.621 193.944 L 581.354 195.866 L 580.08 197.823 L 578.831 199.762 L 577.614 201.632 L 576.385 203.444 L 575.125 205.201 L 573.861 206.909 L 572.625 208.586 L 571.411 210.257 L 570.211 211.896 L 569.033 213.461 L 567.885 214.934 L 566.766 216.356 L 565.697 217.743 L 564.724 219.071 L 563.874 220.308 L 563.136 221.456 L 562.524 222.519 L 562.078 223.478 L 561.662 223.102 L 562.109 223.415 L 561.85 224.229 L 561.773 224.955 L 561.118 224.495 L 561.796 224.828 L 561.998 225.565 L 561.093 225.12 L 561.968 225.304 L 562.419 225.952 L 561.215 225.699 L 562.356 225.826 L 562.734 226.154 L 561.42 226.008 L 560.592 225.131 L 560.884 225.191 L 561.424 225.16 L 562.256 225.025 L 563.356 224.766 L 564.683 224.35 L 566.243 223.755 L 567.881 223.058 L 569.443 222.316 L 570.852 221.534 L 572.099 220.675 L 573.2 219.767 L 574.137 218.865 L 574.894 218.03 L 575.504 217.284 L 576.036 216.607 L 576.113 216.63 L 576.213 216.668 L 576.335 216.714 L 576.396 216.737 L 576.457 216.768 L 576.519 216.791 L 576.572 216.814 L 576.633 216.852 L 576.672 216.89 L 576.71 216.928 L 576.733 216.974 L 576.741 217.036 L 576.748 217.104 L 576.733 217.189 L 576.702 217.25 L 576.204 217.96 L 575.578 218.691 L 574.764 219.47 L 573.761 220.308 L 572.639 221.197 L 571.466 222.126 L 570.26 223.105 L 568.969 224.109 L 567.598 225.064 L 566.27 225.882 L 565.152 226.5 L 564.842 226.603 L 563.893 227.049 L 563.162 227.309 L 562.675 227.405 L 562.227 227.355 L 561.906 227.249 L 561.541 227.078 L 561.176 226.811 L 560.908 226.519 L 560.771 226.143 L 560.602 225.868 L 560.496 225.572 L 560.571 225.028 L 560.556 224.797 L 560.716 224.254 L 560.727 224.081 L 560.985 223.506 L 561.395 222.819 L 561.944 221.959 L 562.592 220.931 L 563.331 219.784 L 564.176 218.542 L 565.147 217.211 L 566.214 215.823 L 567.334 214.402 L 568.482 212.929 L 569.66 211.364 L 570.86 209.725 L 572.074 208.054 L 573.31 206.378 L 574.575 204.669 L 575.834 202.912 L 577.063 201.1 L 578.28 199.23 L 579.529 197.291 L 580.803 195.334 L 582.07 193.412 L 583.321 191.51 L 584.571 189.585 L 585.79 187.692 L 586.937 185.916 L 587.996 184.276 L 588.995 182.703 L 589.942 181.18 L 590.807 179.741 L 591.584 178.398 L 592.321 177.107 L 593.073 175.848 L 593.846 174.645 L 594.563 173.565 L 595.161 172.641 L 595.665 171.772 L 596.093 170.888 L 596.442 169.969 L 596.745 169.001 L 597.066 168.076 L 597.367 167.316 L 597.628 166.725 Z" style='fill:rgba(0,0,0,1); stroke:none' />

<path d="M 593.338 200.406 L 593.338 200.406 L 593.583 200.479 L 593.901 200.602 L 594.292 200.748 L 594.488 200.822 L 594.683 200.92 L 594.879 200.993 L 595.05 201.066 L 595.246 201.189 L 595.368 201.311 L 595.49 201.433 L 595.564 201.58 L 595.588 201.776 L 595.613 201.996 L 595.564 202.265 L 595.466 202.46 L 595.099 202.583 L 594.842 202.595 L 594.551 202.63 L 594.18 202.706 L 593.693 202.849 L 592.757 201.543 L 594.063 202.726 L 593.454 202.95 L 592.732 203.262 L 591.899 203.644 L 590.985 204.072 L 590.005 204.578 L 588.954 205.279 L 587.775 206.176 L 586.568 207.15 L 585.431 208.149 L 584.395 209.209 L 583.411 210.35 L 582.444 211.54 L 581.512 212.738 L 580.619 213.932 L 579.745 215.126 L 578.895 216.298 L 578.1 217.426 L 577.392 218.501 L 576.774 219.538 L 576.244 220.534 L 576.269 220.485 L 575.849 221.41 L 575.604 222.265 L 575.615 223.149 L 574.944 222.678 L 575.639 223.019 L 575.925 223.841 L 574.865 223.32 L 575.889 223.536 L 576.197 223.963 L 574.918 223.694 L 576.13 223.829 L 576.399 224.008 L 575.076 223.861 L 574.244 222.98 L 574.507 223.036 L 574.998 223.062 L 575.773 223.025 L 576.795 222.9 L 577.971 222.684 L 579.261 222.339 L 580.712 221.848 L 582.218 221.256 L 583.704 220.601 L 585.182 219.874 L 586.714 219.048 L 588.286 218.124 L 589.835 217.139 L 591.319 216.127 L 592.753 215.093 L 594.142 214.035 L 595.459 212.968 L 596.699 211.891 L 597.897 210.769 L 599.058 209.584 L 600.167 208.341 L 601.229 207.056 L 602.26 205.727 L 603.254 204.364 L 604.199 202.993 L 605.109 201.614 L 606.035 200.173 L 606.995 198.646 L 607.986 197.076 L 609.007 195.51 L 610.077 193.939 L 611.199 192.349 L 612.344 190.734 L 613.486 189.087 L 614.635 187.4 L 615.781 185.731 L 616.88 184.166 L 617.894 182.758 L 618.826 181.486 L 619.709 180.293 L 619.772 180.312 L 619.854 180.344 L 619.956 180.382 L 620.006 180.401 L 620.057 180.426 L 620.107 180.445 L 620.152 180.464 L 620.203 180.496 L 620.234 180.527 L 620.266 180.559 L 620.285 180.597 L 620.291 180.648 L 620.297 180.705 L 620.285 180.774 L 620.259 180.825 L 619.377 182.018 L 618.445 183.29 L 617.431 184.698 L 616.332 186.263 L 615.186 187.932 L 614.037 189.618 L 612.894 191.265 L 611.75 192.881 L 610.627 194.471 L 609.558 196.042 L 608.54 197.611 L 607.556 199.187 L 606.601 200.719 L 605.675 202.159 L 604.759 203.533 L 603.808 204.899 L 602.81 206.259 L 601.779 207.588 L 600.718 208.872 L 599.609 210.116 L 598.448 211.301 L 597.25 212.423 L 596.01 213.5 L 594.693 214.567 L 593.304 215.624 L 591.868 216.657 L 590.38 217.666 L 588.832 218.651 L 587.28 219.595 L 585.808 220.478 L 584.428 221.301 L 583.079 222.088 L 581.74 222.841 L 580.497 223.532 L 579.472 224.133 L 579.213 224.22 L 578.284 224.74 L 577.438 225.083 L 576.76 225.24 L 576.302 225.255 L 575.853 225.205 L 575.566 225.11 L 575.199 224.939 L 574.832 224.669 L 574.694 224.435 L 574.447 224.165 L 574.268 223.874 L 574.155 223.56 L 574.254 223.212 L 574.236 222.943 L 574.254 222.673 L 574.544 222.254 L 574.885 221.665 L 575.261 220.919 L 575.704 220.013 L 576.226 219.008 L 576.824 217.952 L 577.511 216.857 L 578.288 215.712 L 579.131 214.533 L 580.012 213.346 L 580.912 212.159 L 581.838 210.954 L 582.788 209.749 L 583.755 208.591 L 584.734 207.476 L 585.749 206.36 L 586.827 205.26 L 587.869 204.232 L 588.719 203.336 L 589.396 202.538 L 590.033 201.842 L 590.679 201.28 L 591.323 200.893 L 591.919 200.656 L 592.412 200.521 L 592.788 200.451 L 593.08 200.418 L 593.338 200.406 Z" style='fill:rgba(0,0,0,1); stroke:none' />

<path d="M 621.45 175.897 L 621.45 175.897 L 621.698 175.971 L 622.021 176.096 L 622.418 176.244 L 622.616 176.319 L 622.814 176.418 L 623.013 176.492 L 623.186 176.567 L 623.385 176.691 L 623.509 176.815 L 623.633 176.939 L 623.707 177.088 L 623.732 177.286 L 623.757 177.509 L 623.707 177.782 L 623.608 177.98 L 622.534 178.754 L 621.2 179.746 L 619.841 180.754 L 618.695 181.584 L 617.636 182.338 L 616.532 183.184 L 615.451 184.151 L 614.482 185.231 L 613.577 186.401 L 612.645 187.66 L 611.638 189.002 L 610.561 190.411 L 609.426 191.893 L 608.211 193.468 L 606.911 195.151 L 605.549 196.944 L 604.154 198.852 L 602.728 200.878 L 601.276 202.979 L 599.822 205.105 L 598.385 207.235 L 596.959 209.378 L 595.553 211.487 L 594.21 213.488 L 592.977 215.332 L 591.858 217.034 L 590.839 218.617 L 589.909 220.068 L 589.057 221.359 L 588.258 222.485 L 587.495 223.454 L 586.774 224.281 L 586.114 225.008 L 585.546 225.749 L 585.123 226.615 L 584.899 227.493 L 584.897 227.949 L 583.654 226.824 L 582.857 225.979 L 582.864 225.892 L 583.114 225.689 L 583.557 225.368 L 584.221 224.923 L 585.126 224.372 L 586.252 223.726 L 587.541 222.993 L 588.881 222.199 L 590.164 221.338 L 591.398 220.387 L 592.63 219.354 L 593.89 218.262 L 595.198 217.136 L 596.568 215.988 L 597.976 214.849 L 599.368 213.748 L 600.701 212.685 L 601.974 211.632 L 603.182 210.586 L 604.319 209.566 L 605.39 208.597 L 606.41 207.688 L 607.372 206.843 L 608.247 206.051 L 609.015 205.275 L 609.639 204.552 L 610.016 204.111 L 610.198 203.977 L 610.442 204.05 L 610.759 204.172 L 611.149 204.318 L 611.344 204.391 L 611.539 204.489 L 611.734 204.562 L 611.904 204.635 L 612.099 204.757 L 612.235 204.831 L 612.36 204.956 L 612.485 205.081 L 612.56 205.232 L 612.584 205.397 L 612.609 205.597 L 612.634 205.822 L 612.584 206.097 L 612.519 206.396 L 612.295 206.909 L 612.197 207.105 L 611.717 207.835 L 610.931 208.712 L 609.912 209.685 L 608.797 210.708 L 607.74 211.725 L 606.797 212.727 L 605.913 213.709 L 605.058 214.691 L 604.235 215.705 L 603.441 216.767 L 602.652 217.89 L 601.853 219.049 L 601.063 220.207 L 600.313 221.328 L 599.626 222.394 L 599.025 223.386 L 598.532 224.279 L 598.204 223.982 L 598.557 224.229 L 598.212 225.031 L 598.078 225.825 L 597.586 225.48 L 598.095 225.73 L 598.269 226.57 L 598.709 227.422 L 597.549 226.851 L 598.67 227.087 L 599.109 227.579 L 597.756 227.294 L 598.8 227.199 L 599.21 227.439 L 598.106 227.539 L 597.253 226.636 L 597.781 226.76 L 598.537 226.801 L 599.521 226.736 L 600.712 226.546 L 602.08 226.199 L 603.574 225.695 L 605.087 225.052 L 606.549 224.278 L 607.983 223.407 L 609.417 222.491 L 609.478 222.509 L 609.556 222.539 L 609.653 222.576 L 609.701 222.594 L 609.75 222.618 L 609.798 222.636 L 609.84 222.654 L 609.889 222.684 L 609.919 222.714 L 609.949 222.745 L 609.967 222.781 L 609.973 222.829 L 609.979 222.884 L 609.967 222.95 L 609.943 222.999 L 608.509 223.915 L 607.121 224.83 L 605.816 225.756 L 604.593 226.679 L 603.443 227.515 L 602.402 228.178 L 602.111 228.275 L 601.134 228.73 L 600.277 228.952 L 599.582 228.986 L 599.132 228.936 L 598.608 228.819 L 598.232 228.643 L 597.874 228.339 L 597.518 228.078 L 597.257 227.793 L 597.067 227.484 L 596.978 227.008 L 596.88 226.733 L 597.034 226.106 L 597.021 225.906 L 597.034 225.707 L 597.293 225.17 L 597.606 224.525 L 597.993 223.759 L 598.482 222.861 L 599.063 221.849 L 599.711 220.747 L 600.414 219.58 L 601.16 218.38 L 601.942 217.203 L 602.749 216.099 L 603.581 215.074 L 604.435 214.09 L 605.302 213.119 L 606.169 212.121 L 607.017 211.028 L 607.828 209.772 L 608.58 208.399 L 609.219 207.06 L 609.716 205.902 L 610.063 205.044 L 610.252 204.502 L 610.309 204.197 L 611.159 205.097 L 610.309 204.947 L 610.284 204.781 L 611.134 204.931 L 611.259 206.032 L 611.149 205.927 L 611.027 204.854 L 611.953 206.146 L 611.587 206.053 L 610.758 204.896 L 611.914 205.944 L 611.078 205.941 L 609.919 206.147 L 608.843 206.627 L 607.88 207.334 L 606.924 208.185 L 605.926 209.114 L 604.867 210.095 L 603.734 211.119 L 602.528 212.167 L 601.257 213.222 L 599.929 214.29 L 598.542 215.395 L 597.135 216.536 L 595.761 217.68 L 594.445 218.798 L 593.178 219.883 L 591.955 220.925 L 590.794 221.946 L 589.717 223.006 L 588.72 224.132 L 587.8 225.22 L 586.986 226.168 L 586.289 226.919 L 585.72 227.456 L 585.309 227.808 L 585.043 227.996 L 584.897 227.949 L 584.545 228.066 L 584.123 228.02 L 583.771 227.855 L 583.42 227.597 L 583.162 227.316 L 582.974 227.011 L 582.857 226.683 L 582.833 226.331 L 582.857 225.979 L 583.242 225.893 L 584.041 225.57 L 584.859 225.085 L 585.574 224.486 L 586.252 223.777 L 586.958 222.936 L 587.71 221.956 L 588.505 220.826 L 589.357 219.535 L 590.288 218.084 L 591.307 216.502 L 592.426 214.801 L 593.659 212.956 L 595.002 210.955 L 596.409 208.846 L 597.834 206.703 L 599.271 204.573 L 600.725 202.447 L 602.177 200.346 L 603.603 198.32 L 604.999 196.413 L 606.363 194.622 L 607.663 192.939 L 608.871 191.357 L 609.984 189.854 L 611.026 188.41 L 612.013 187.05 L 612.962 185.806 L 613.878 184.648 L 614.763 183.487 L 615.592 182.276 L 616.34 181.087 L 617.051 179.996 L 617.933 178.911 L 619.129 177.747 L 620.396 176.69 L 621.45 175.897 Z" style='fill:rgba(0,0,0,1); stroke:none' />

<path d="M 627.11 201.769 L 627.11 201.769 L 627.354 201.843 L 627.673 201.965 L 628.064 202.112 L 628.26 202.185 L 628.456 202.283 L 628.652 202.357 L 628.823 202.43 L 629.019 202.552 L 629.141 202.675 L 629.264 202.797 L 629.337 202.944 L 629.362 203.14 L 629.386 203.36 L 629.337 203.629 L 629.239 203.825 L 628.896 203.99 L 628.468 204.236 L 627.913 204.616 L 627.272 205.134 L 626.583 205.74 L 625.83 206.398 L 624.95 207.149 L 623.904 208.028 L 622.795 208.974 L 621.785 209.919 L 620.948 210.909 L 620.241 211.967 L 619.602 213.091 L 618.968 214.259 L 618.298 215.485 L 617.596 216.764 L 616.895 218.089 L 616.925 218.028 L 616.254 219.363 L 615.631 220.656 L 615.081 221.856 L 614.649 222.934 L 614.41 223.942 L 614.433 225.028 L 613.799 224.582 L 614.456 224.905 L 614.731 225.946 L 615.009 226.569 L 613.701 225.926 L 614.965 226.192 L 615.16 226.394 L 613.773 226.102 L 612.945 225.226 L 613.042 225.236 L 613.202 225.198 L 613.436 225.09 L 613.81 224.864 L 614.41 224.487 L 615.277 223.965 L 616.367 223.335 L 617.62 222.591 L 618.914 221.687 L 620.15 220.688 L 621.312 219.655 L 622.429 218.626 L 623.512 217.614 L 624.565 216.615 L 625.578 215.644 L 626.534 214.713 L 627.398 213.845 L 628.03 213.215 L 628.164 213.122 L 628.39 213.19 L 628.684 213.303 L 629.046 213.439 L 629.227 213.507 L 629.408 213.597 L 629.589 213.665 L 629.747 213.733 L 629.928 213.846 L 630.041 213.959 L 630.154 214.072 L 630.222 214.208 L 630.33 214.339 L 630.353 214.529 L 630.377 214.743 L 630.33 215.004 L 630.235 215.194 L 629.865 215.731 L 628.958 216.447 L 627.732 217.268 L 626.383 218.273 L 625.041 219.447 L 623.741 220.677 L 622.474 221.879 L 621.209 223.036 L 619.906 224.192 L 618.563 225.384 L 617.212 226.641 L 615.883 227.984 L 614.573 229.429 L 613.277 230.959 L 611.991 232.545 L 610.709 234.18 L 609.401 235.899 L 608.066 237.704 L 606.738 239.547 L 605.447 241.362 L 604.214 243.123 L 603.064 244.813 L 602.011 246.417 L 601.056 247.927 L 600.184 249.349 L 599.391 250.675 L 598.685 251.869 L 598.053 252.891 L 597.492 253.749 L 597.041 254.488 L 596.745 255.163 L 596.575 255.754 L 596.468 256.238 L 596.382 256.617 L 596.3 256.916 L 596.205 257.152 L 596.082 257.32 L 595.932 257.433 L 595.761 257.517 L 595.392 257.64 L 594.949 257.59 L 594.579 257.418 L 594.21 257.147 L 593.939 256.852 L 593.742 256.532 L 593.619 256.187 L 593.595 255.818 L 593.619 255.449 L 593.806 255.382 L 593.997 255.307 L 594.204 255.22 L 594.441 255.122 L 594.706 254.998 L 595.009 254.83 L 595.372 254.593 L 595.798 254.249 L 596.285 253.758 L 596.819 253.099 L 597.414 252.275 L 598.079 251.283 L 598.82 250.124 L 599.632 248.816 L 600.508 247.398 L 601.463 245.887 L 602.514 244.282 L 603.663 242.591 L 604.896 240.83 L 606.187 239.015 L 607.515 237.172 L 608.85 235.367 L 610.159 233.648 L 611.441 232.013 L 612.726 230.427 L 614.022 228.897 L 615.331 227.45 L 616.657 226.105 L 618.005 224.845 L 619.348 223.653 L 620.655 222.501 L 621.919 221.343 L 623.165 220.122 L 624.399 218.826 L 625.553 217.472 L 626.527 216.105 L 627.289 214.836 L 627.871 213.806 L 628.17 213.2 L 628.977 214.054 L 628.289 214.244 L 628.277 214.117 L 628.933 213.936 L 629.792 215.135 L 629.496 215.027 L 628.722 213.948 L 629.801 214.925 L 628.583 214.989 L 627.277 215.43 L 626.127 216.173 L 625.08 217.112 L 624.059 218.142 L 623.028 219.205 L 621.96 220.281 L 620.87 221.384 L 619.791 222.534 L 618.788 223.718 L 617.934 224.848 L 617.167 225.789 L 616.486 226.491 L 615.953 226.933 L 615.589 227.169 L 615.359 227.281 L 614.987 227.405 L 614.831 227.447 L 614.384 227.397 L 614.259 227.343 L 613.894 227.173 L 613.529 226.905 L 613.262 226.613 L 613.067 226.297 L 613.058 226.104 L 612.947 225.793 L 612.925 225.46 L 613.086 225.071 L 613.104 224.809 L 613.42 224.181 L 613.755 223.395 L 614.11 222.483 L 614.542 221.406 L 615.055 220.174 L 615.625 218.838 L 616.239 217.455 L 616.892 216.085 L 617.576 214.787 L 618.275 213.591 L 618.975 212.485 L 619.676 211.422 L 620.377 210.358 L 621.086 209.244 L 621.815 208.028 L 622.581 206.751 L 623.312 205.567 L 623.957 204.589 L 624.56 203.786 L 625.178 203.113 L 625.794 202.57 L 626.341 202.182 L 626.767 201.935 L 627.11 201.769 Z" style='fill:rgba(0,0,0,1); stroke:none' />

<path d="M 651.551 196.956 L 651.551 196.956 L 651.184 197.079 L 650.743 197.03 L 650.376 196.858 L 650.008 196.589 L 649.739 196.295 L 649.543 195.977 L 649.421 195.634 L 649.396 195.266 L 649.421 194.899 L 649.895 194.288 L 650.499 193.512 L 651.322 192.445 L 652.238 191.174 L 653.195 189.848 L 653.998 188.359 L 654.602 186.714 L 655.095 184.997 L 655.514 183.269 L 655.866 181.573 L 656.101 179.953 L 656.228 178.396 L 656.222 178.493 L 656.237 177.038 L 656.188 175.761 L 656.195 175.856 L 656.094 174.843 L 655.702 173.847 L 655.753 173.99 L 654.79 172.764 L 654.676 172.445 L 654.653 172.103 L 654.676 171.762 L 654.904 171.83 L 655.2 171.944 L 655.565 172.081 L 655.747 172.149 L 655.929 172.24 L 656.112 172.309 L 656.271 172.377 L 656.454 172.491 L 656.568 172.605 L 656.682 172.719 L 656.75 172.856 L 656.632 174.03 L 656.683 174.96 L 656.69 175.012 L 656.696 175.07 L 656.785 176.078 L 656.84 177.358 L 656.825 178.813 L 656.697 180.369 L 656.46 181.988 L 656.447 182.058 L 656.094 183.753 L 655.663 185.471 L 655.149 187.171 L 654.63 188.887 L 654.257 190.734 L 653.932 192.59 L 653.858 192.739 L 653.286 194.341 L 652.613 195.554 L 652.036 196.355 L 651.551 196.956 Z" style='fill:rgba(0,0,0,1); stroke:none' />

<path d="M 643.306 227.245 L 643.306 227.245 L 642.937 227.368 L 642.495 227.319 L 642.126 227.147 L 641.757 226.876 L 641.487 226.581 L 641.29 226.261 L 641.167 225.917 L 641.142 225.548 L 641.167 225.18 L 641.67 224.608 L 642.202 224.013 L 642.762 223.401 L 643.321 222.791 L 643.862 222.194 L 644.388 221.583 L 644.905 220.934 L 645.429 220.223 L 645.985 219.432 L 646.614 218.517 L 647.349 217.464 L 648.156 216.36 L 648.955 215.302 L 649.697 214.289 L 650.4 213.295 L 651.127 212.282 L 651.887 211.23 L 652.645 210.141 L 653.38 209.043 L 654.098 207.963 L 654.797 206.959 L 655.439 206.083 L 655.98 205.357 L 656.398 204.729 L 656.688 204.13 L 656.882 203.547 L 657.041 203.042 L 657.201 202.664 L 657.351 202.375 L 657.481 202.126 L 657.6 201.895 L 657.724 201.674 L 657.86 201.469 L 658.003 201.287 L 658.15 201.139 L 658.298 201.031 L 658.441 200.966 L 658.576 200.945 L 658.699 200.968 L 658.944 201.041 L 659.262 201.163 L 659.653 201.31 L 659.849 201.383 L 660.045 201.481 L 660.24 201.555 L 660.412 201.628 L 660.523 201.696 L 660.719 201.818 L 660.841 201.94 L 660.964 202.063 L 661.063 202.172 L 661.147 202.32 L 661.22 202.466 L 661.291 202.664 L 661.355 202.946 L 661.415 203.352 L 661.44 203.548 L 661.464 203.768 L 661.52 204.306 L 661.569 204.944 L 661.616 205.63 L 660.215 204.941 L 661.593 205.416 L 661.649 206.104 L 660.306 205.641 L 661.626 205.919 L 661.695 206.595 L 661.758 207.272 L 661.8 207.958 L 661.822 208.642 L 661.871 209.312 L 661.888 209.444 L 661.969 210.098 L 661.985 210.245 L 662.052 210.909 L 662.077 211.589 L 662.064 212.281 L 662.012 212.978 L 661.977 213.168 L 661.865 213.848 L 661.701 214.486 L 661.5 215.093 L 661.268 215.697 L 661.195 215.842 L 660.898 216.461 L 660.482 217.12 L 659.875 217.828 L 659.058 218.515 L 658.082 219.118 L 657.088 219.619 L 656.262 220.102 L 655.612 220.586 L 655.009 221.002 L 654.432 221.332 L 653.93 221.597 L 653.701 221.673 L 653.283 221.914 L 652.956 222.123 L 652.681 222.291 L 652.417 222.417 L 652.144 222.504 L 651.872 222.56 L 651.612 222.589 L 651.377 222.591 L 650.937 222.542 L 650.742 222.517 L 650.59 222.463 L 650.223 222.292 L 650.097 222.215 L 649.73 221.946 L 649.461 221.652 L 649.265 221.334 L 649.143 220.992 L 649.118 220.625 L 649.143 220.258 L 649.387 220.331 L 649.705 220.453 L 650.097 220.6 L 650.293 220.674 L 650.488 220.771 L 650.684 220.845 L 650.855 220.918 L 650.982 220.994 L 650.1 221.214 L 649.513 220.406 L 649.664 220.458 L 650.252 221.267 L 649.419 220.385 L 649.614 220.411 L 649.86 220.423 L 650.149 220.43 L 650.469 220.433 L 650.812 220.434 L 651.185 220.442 L 651.596 220.442 L 652.066 220.41 L 652.603 220.316 L 653.195 220.138 L 653.858 219.891 L 654.59 219.598 L 655.358 219.23 L 656.109 218.674 L 656.837 217.915 L 657.564 217.073 L 658.241 216.25 L 658.821 215.516 L 659.273 214.892 L 659.621 214.321 L 659.885 213.744 L 660.086 213.138 L 660.255 212.503 L 660.4 211.851 L 660.501 211.189 L 661.073 211.794 L 660.485 211.441 L 660.522 210.762 L 660.504 210.086 L 661.08 210.431 L 660.521 210.333 L 660.465 209.673 L 660.373 209.016 L 660.226 208.326 L 660.033 207.608 L 659.837 206.892 L 659.662 206.193 L 659.518 205.502 L 659.407 204.799 L 659.322 204.099 L 659.251 203.452 L 659.187 202.911 L 659.126 202.505 L 659.063 202.223 L 658.994 202.026 L 659.826 202.173 L 659.116 202.369 L 659.032 202.221 L 659.742 202.025 L 659.228 202.539 L 659.129 202.43 L 659.643 201.916 L 659.765 202.992 L 659.653 202.925 L 659.531 201.848 L 660.02 203.096 L 659.897 203.074 L 659.407 201.826 L 660.337 203.122 L 660.204 203.145 L 659.274 201.848 L 660.571 203.023 L 660.43 203.089 L 660.282 203.197 L 660.125 203.336 L 659.955 203.491 L 659.768 203.648 L 659.571 203.798 L 659.362 203.943 L 659.134 204.096 L 658.866 204.272 L 658.513 204.463 L 658.045 204.67 L 657.53 204.943 L 657.045 205.354 L 656.582 205.938 L 656.072 206.694 L 655.473 207.612 L 654.794 208.635 L 654.058 209.698 L 653.29 210.763 L 652.506 211.828 L 651.742 212.876 L 651.015 213.889 L 650.323 214.894 L 649.642 215.965 L 648.957 217.134 L 648.272 218.355 L 647.65 219.516 L 647.13 220.537 L 646.695 221.445 L 646.312 222.293 L 645.959 223.101 L 645.612 223.884 L 645.237 224.64 L 644.798 225.367 L 644.311 226.049 L 643.805 226.67 L 643.306 227.245 Z" style='fill:rgba(0,0,0,1); stroke:none' />

<path d="M 708.429 188.283 L 708.429 188.283 L 708.331 188.479 L 707.964 188.601 L 707.522 188.552 L 707.155 188.381 L 706.787 188.111 L 706.518 187.817 L 706.321 187.498 L 706.199 187.155 L 706.174 186.788 L 706.199 186.42 L 706.332 185.848 L 706.464 185.247 L 706.577 184.648 L 706.651 184.12 L 706.685 183.696 L 707.503 184.562 L 706.661 184.057 L 706.666 183.713 L 706.653 183.416 L 707.504 183.927 L 706.677 183.781 L 706.648 183.523 L 706.597 183.312 L 707.429 183.459 L 706.719 183.655 L 706.642 183.51 L 707.352 183.314 L 707.474 184.391 L 707.375 184.333 L 707.253 183.255 L 708.551 184.431 L 708.448 184.478 L 708.34 184.632 L 707.037 183.452 L 708.438 184.436 L 708.308 184.707 L 708.131 185.124 L 707.894 185.706 L 707.594 186.451 L 707.239 187.376 L 706.842 188.527 L 706.875 188.345 L 706.442 189.761 L 706.009 191.258 L 705.604 192.719 L 705.588 192.808 L 705.242 194.22 L 704.935 195.675 L 704.637 197.226 L 704.325 198.903 L 703.988 200.721 L 703.624 202.678 L 703.245 204.732 L 702.867 206.821 L 702.88 206.751 L 702.517 208.847 L 702.174 210.941 L 701.849 212.991 L 701.555 214.931 L 701.304 216.721 L 701.091 218.382 L 700.909 219.946 L 700.764 221.41 L 700.676 222.758 L 700.692 223.99 L 700.868 225.102 L 701.183 225.972 L 701.477 226.336 L 700.172 225.695 L 699.421 224.899 L 699.418 224.65 L 699.541 224.17 L 699.786 223.465 L 700.158 222.566 L 700.66 221.514 L 701.294 220.331 L 702.039 219.024 L 702.821 217.686 L 703.565 216.391 L 704.247 215.153 L 704.881 213.945 L 705.487 212.741 L 706.071 211.546 L 706.638 210.373 L 707.191 209.224 L 707.723 208.12 L 708.224 207.109 L 708.698 206.241 L 709.143 205.514 L 709.533 204.894 L 709.83 204.378 L 710.031 204.055 L 710.174 203.908 L 710.3 203.877 L 710.543 203.95 L 710.858 204.072 L 711.247 204.217 L 711.441 204.29 L 711.582 204.341 L 711.779 204.439 L 711.975 204.513 L 712.148 204.587 L 712.345 204.71 L 712.467 204.815 L 712.59 204.938 L 712.713 205.061 L 712.817 205.22 L 712.891 205.368 L 712.976 205.6 L 713.035 205.942 L 713.06 206.138 L 713.084 206.358 L 713.101 206.853 L 713.053 207.519 L 712.92 208.323 L 712.706 209.203 L 712.428 210.102 L 712.114 210.973 L 711.799 211.821 L 711.774 211.958 L 711.475 212.812 L 711.18 213.757 L 710.875 214.811 L 710.547 215.975 L 710.193 217.264 L 709.826 218.664 L 709.48 220.097 L 709.171 221.486 L 708.907 222.786 L 708.695 223.988 L 708.708 223.916 L 708.567 225.025 L 708.506 226.05 L 708.493 226.981 L 708.507 227.819 L 708.56 228.558 L 708.705 229.198 L 707.912 228.808 L 708.691 229.077 L 708.918 229.58 L 707.969 229.253 L 708.901 229.449 L 709.143 229.793 L 709.372 230.029 L 708.141 229.77 L 709.307 229.899 L 709.521 230.052 L 708.261 229.912 L 709.101 229.702 L 709.304 229.774 L 708.426 229.994 L 707.597 229.116 L 707.834 229.095 L 708.224 228.952 L 708.808 228.621 L 709.599 228.055 L 710.575 227.24 L 711.676 226.219 L 712.795 225.084 L 713.841 223.857 L 714.825 222.496 L 715.789 220.954 L 716.778 219.217 L 717.835 217.291 L 718.994 215.177 L 720.263 212.902 L 721.607 210.489 L 722.992 207.947 L 724.401 205.286 L 725.814 202.556 L 727.207 199.832 L 728.563 197.163 L 729.888 194.563 L 731.182 192.05 L 732.432 189.662 L 733.628 187.42 L 734.776 185.328 L 735.881 183.399 L 736.939 181.646 L 737.937 180.064 L 738.871 178.62 L 739.732 177.306 L 740.517 176.158 L 741.239 175.204 L 741.899 174.427 L 742.469 173.771 L 742.915 173.186 L 743.246 172.693 L 743.528 172.355 L 743.792 172.171 L 744.042 172.11 L 744.268 172.13 L 744.515 172.204 L 744.722 172.278 L 745.042 172.401 L 745.435 172.549 L 745.632 172.623 L 745.828 172.721 L 746.025 172.795 L 746.197 172.868 L 746.394 172.991 L 746.583 173.116 L 746.705 173.238 L 746.896 173.424 L 747.018 173.546 L 747.216 173.811 L 747.417 174.175 L 747.49 174.322 L 747.681 174.792 L 747.845 175.349 L 747.963 175.97 L 747.987 176.164 L 748.012 176.383 L 748.071 177.045 L 748.062 177.732 L 747.986 178.419 L 747.867 179.094 L 747.824 179.333 L 747.737 179.506 L 747.411 179.615 L 747.021 179.571 L 746.696 179.42 L 746.37 179.181 L 746.132 178.921 L 745.958 178.639 L 745.85 178.335 L 745.828 178.01 L 745.85 177.684 L 745.869 176.939 L 746.643 177.759 L 745.846 177.281 L 745.848 176.554 L 745.812 175.843 L 746.653 176.348 L 745.836 176.204 L 745.751 175.532 L 745.62 174.909 L 745.453 174.351 L 746.285 174.498 L 745.575 174.694 L 745.385 174.224 L 745.185 173.86 L 745.895 173.664 L 745.381 174.178 L 745.184 173.913 L 745.697 173.4 L 745.453 174.207 L 745.26 174.022 L 745.505 173.213 L 745.627 174.291 L 745.435 174.171 L 745.312 173.09 L 745.804 174.343 L 745.602 174.278 L 745.108 173.019 L 746.047 174.328 L 745.813 174.3 L 745.504 174.287 L 745.076 174.269 L 744.259 173.129 L 745.399 174.161 L 744.771 174.166 L 744.002 174.236 L 743.21 174.486 L 742.474 174.982 L 741.772 175.719 L 741.054 176.676 L 740.277 177.832 L 739.421 179.151 L 738.489 180.596 L 737.49 182.179 L 736.432 183.932 L 735.327 185.86 L 734.179 187.951 L 732.983 190.194 L 731.732 192.582 L 730.438 195.094 L 729.114 197.695 L 727.758 200.363 L 726.365 203.088 L 724.952 205.818 L 723.543 208.48 L 722.159 211.022 L 720.815 213.434 L 719.545 215.708 L 718.381 217.818 L 717.319 219.739 L 716.331 221.478 L 715.407 223.059 L 714.549 224.54 L 713.749 226.005 L 712.985 227.483 L 712.232 228.84 L 711.526 229.916 L 710.899 230.64 L 710.381 231.035 L 709.995 231.182 L 709.623 231.306 L 709.353 231.286 L 708.914 231.238 L 708.548 231.067 L 708.378 230.938 L 708.028 230.682 L 707.771 230.402 L 707.688 230.223 L 707.515 229.943 L 707.488 229.716 L 707.392 229.447 L 707.413 229.155 L 707.456 228.728 L 707.442 228.526 L 707.47 227.978 L 707.492 227.279 L 707.561 226.485 L 707.571 226.336 L 707.703 225.489 L 707.889 224.552 L 708.102 223.493 L 708.332 222.305 L 708.586 220.998 L 708.876 219.593 L 709.202 218.142 L 709.543 216.722 L 709.866 215.407 L 710.147 214.203 L 710.372 213.083 L 710.533 212.025 L 710.636 211.008 L 710.701 209.985 L 710.756 208.933 L 710.809 207.877 L 710.848 206.875 L 710.864 205.99 L 711.664 206.837 L 710.841 206.343 L 710.827 205.643 L 710.784 205.135 L 711.64 205.649 L 710.808 205.502 L 710.741 205.158 L 711.576 205.306 L 710.864 205.502 L 710.776 205.27 L 711.489 205.073 L 710.972 205.589 L 710.866 205.43 L 711.383 204.913 L 711.137 205.726 L 711.016 205.62 L 711.262 204.808 L 711.754 206.063 L 711.611 205.989 L 711.125 204.751 L 712.048 206.037 L 711.848 205.978 L 711.554 205.938 L 710.75 204.817 L 711.871 205.832 L 711.371 205.865 L 710.708 206.029 L 710.058 206.397 L 709.462 206.978 L 708.889 207.751 L 708.314 208.69 L 707.741 209.755 L 707.172 210.889 L 707.197 210.84 L 706.625 212.008 L 706.048 213.21 L 705.487 214.451 L 704.969 215.757 L 704.49 217.163 L 704.027 218.693 L 703.558 220.292 L 703.098 221.837 L 702.684 223.205 L 702.325 224.375 L 702.034 225.343 L 701.817 226.072 L 701.64 226.506 L 701.432 226.579 L 701.344 226.756 L 701.012 226.867 L 700.615 226.823 L 700.283 226.668 L 699.951 226.425 L 699.708 226.159 L 699.531 225.872 L 699.421 225.563 L 699.558 225.36 L 699.54 225.098 L 699.775 224.52 L 699.786 224.346 L 699.982 223.494 L 700.116 222.366 L 700.225 221.033 L 700.35 219.555 L 700.512 217.978 L 700.715 216.31 L 700.965 214.518 L 701.259 212.579 L 701.584 210.529 L 701.928 208.435 L 702.288 206.337 L 702.662 204.245 L 703.039 202.189 L 703.405 200.234 L 703.751 198.424 L 704.075 196.756 L 704.372 195.205 L 704.636 193.714 L 704.856 192.196 L 705.033 190.576 L 705.191 188.887 L 705.337 187.271 L 705.468 185.896 L 705.603 184.788 L 705.755 183.92 L 705.919 183.277 L 706.072 182.84 L 706.202 182.568 L 706.314 182.417 L 706.42 182.373 L 706.665 182.447 L 706.983 182.569 L 707.375 182.716 L 707.571 182.79 L 707.767 182.888 L 707.963 182.961 L 708.134 183.035 L 708.233 183.094 L 708.429 183.216 L 708.551 183.338 L 708.674 183.461 L 708.75 183.606 L 708.823 183.753 L 708.87 183.962 L 708.894 184.158 L 708.919 184.377 L 708.939 184.632 L 708.938 184.922 L 708.922 185.26 L 708.885 185.681 L 708.816 186.213 L 708.768 186.478 L 708.669 187.088 L 708.551 187.701 L 708.429 188.283 Z" style='fill:rgba(0,0,0,1); stroke:none' />

<path d="M 723.831 225.769 L 723.831 225.769 L 723.456 225.894 L 723.005 225.844 L 722.63 225.669 L 722.255 225.394 L 721.979 225.094 L 721.779 224.768 L 721.654 224.418 L 721.629 224.043 L 721.654 223.667 L 722.5 223.224 L 723.429 222.762 L 724.42 222.283 L 725.346 221.801 L 726.164 221.286 L 726.892 220.704 L 727.622 220.098 L 728.446 219.46 L 729.437 218.731 L 730.569 217.901 L 731.756 217.09 L 732.923 216.366 L 734.033 215.714 L 735.101 215.071 L 736.189 214.381 L 737.314 213.618 L 738.437 212.786 L 739.513 211.896 L 740.545 210.943 L 741.525 209.946 L 742.419 208.931 L 743.187 207.924 L 743.812 206.946 L 744.271 206.007 L 744.55 205.122 L 744.678 204.328 L 744.719 203.663 L 744.692 203.108 L 745.271 203.721 L 744.675 203.363 L 744.583 202.898 L 745.247 203.296 L 744.602 203.182 L 744.466 202.807 L 744.318 202.509 L 745.094 202.646 L 744.432 202.828 L 744.278 202.603 L 744.97 202.413 L 744.469 202.914 L 744.298 202.733 L 744.81 202.221 L 744.932 203.294 L 744.723 203.155 L 744.6 202.073 L 745.092 203.327 L 744.796 203.249 L 744.301 201.988 L 745.241 203.298 L 744.797 203.309 L 744.145 203.426 L 743.231 202.151 L 744.506 203.306 L 743.597 203.532 L 742.514 203.836 L 741.423 204.19 L 740.521 204.694 L 739.769 205.382 L 738.984 206.194 L 738.05 207.085 L 737.049 208.106 L 736.126 209.251 L 735.283 210.472 L 734.469 211.727 L 733.658 212.992 L 732.844 214.258 L 732 215.537 L 731.122 216.84 L 730.25 218.192 L 729.437 219.601 L 728.707 221.062 L 728.733 221.009 L 728.084 222.476 L 727.52 223.87 L 727.052 225.133 L 726.686 226.277 L 726.469 227.326 L 726.03 227.018 L 726.484 227.241 L 726.478 228.163 L 726.654 228.911 L 725.866 228.524 L 726.628 228.684 L 726.902 229.172 L 725.95 228.971 L 726.852 229.072 L 727.154 229.391 L 727.474 229.622 L 726.317 229.494 L 727.089 229.301 L 727.441 229.442 L 726.621 229.647 L 725.847 228.828 L 726.289 228.86 L 726.982 228.766 L 727.957 228.502 L 729.217 228.058 L 730.735 227.452 L 732.374 226.773 L 733.982 226.055 L 735.494 225.291 L 736.939 224.459 L 738.353 223.575 L 738.411 223.592 L 738.488 223.621 L 738.581 223.657 L 738.628 223.674 L 738.675 223.698 L 738.722 223.715 L 738.763 223.733 L 738.81 223.762 L 738.84 223.792 L 738.869 223.821 L 738.887 223.856 L 738.893 223.903 L 738.898 223.956 L 738.887 224.021 L 738.863 224.068 L 737.525 225.025 L 736.227 225.999 L 734.956 226.996 L 733.678 228.031 L 732.376 229.037 L 731.119 229.895 L 730.013 230.488 L 729.659 230.606 L 728.715 230.908 L 727.992 230.965 L 727.566 230.918 L 727.076 230.808 L 726.735 230.649 L 726.424 230.437 L 726.103 230.201 L 725.911 229.915 L 725.697 229.682 L 725.542 229.43 L 725.465 229.105 L 725.382 228.871 L 725.411 228.444 L 725.398 228.243 L 725.534 227.661 L 725.545 227.51 L 725.769 226.741 L 726.065 225.758 L 726.444 224.625 L 726.915 223.365 L 727.482 221.974 L 728.131 220.506 L 728.863 219.046 L 729.672 217.633 L 730.529 216.267 L 731.393 214.95 L 732.239 213.673 L 733.064 212.419 L 733.882 211.161 L 734.697 209.905 L 735.524 208.67 L 736.373 207.453 L 737.222 206.286 L 738.04 205.282 L 738.834 204.48 L 739.584 203.79 L 740.274 203.081 L 740.953 202.33 L 741.693 201.694 L 742.413 201.285 L 743.017 201.108 L 743.461 201.098 L 743.764 201.188 L 744.01 201.262 L 744.329 201.385 L 744.723 201.532 L 744.92 201.606 L 745.116 201.704 L 745.313 201.778 L 745.485 201.852 L 745.682 201.975 L 745.883 202.124 L 746.005 202.245 L 746.127 202.367 L 746.259 202.556 L 746.326 202.783 L 746.395 202.92 L 746.391 203.188 L 746.328 203.524 L 746.347 203.676 L 746.366 203.846 L 746.275 204.215 L 746.133 204.652 L 746.103 204.819 L 745.843 205.301 L 745.433 205.859 L 744.947 206.571 L 744.917 206.63 L 744.386 207.501 L 743.756 208.473 L 742.988 209.481 L 742.092 210.494 L 741.111 211.49 L 740.082 212.445 L 739.013 213.343 L 737.91 214.194 L 736.805 214.976 L 735.727 215.676 L 734.673 216.332 L 733.612 217.031 L 732.514 217.822 L 731.409 218.712 L 730.389 219.651 L 729.544 220.52 L 728.807 221.242 L 728.083 221.854 L 727.364 222.444 L 726.708 223.116 L 726.052 223.858 L 725.326 224.594 L 724.578 225.231 L 723.831 225.769 Z" style='fill:rgba(0,0,0,1); stroke:none' />

<path d="M 770.447 180.919 L 770.447 180.919 L 770.694 180.993 L 771.014 181.116 L 771.409 181.264 L 771.606 181.338 L 771.803 181.437 L 772.001 181.511 L 772.173 181.585 L 772.371 181.708 L 772.494 181.832 L 772.617 181.955 L 772.691 182.103 L 772.716 182.3 L 772.74 182.522 L 772.691 182.793 L 772.592 182.991 L 772.361 183.454 L 772.05 183.994 L 771.583 184.646 L 770.947 185.369 L 770.202 186.084 L 769.42 186.822 L 768.639 187.73 L 767.81 188.877 L 766.961 190.157 L 766.129 191.467 L 765.315 192.774 L 764.504 194.116 L 763.691 195.54 L 762.87 197.07 L 762.03 198.728 L 762.055 198.678 L 761.192 200.479 L 760.326 202.385 L 759.481 204.319 L 758.654 206.245 L 757.816 208.204 L 756.952 210.208 L 756.081 212.204 L 755.226 214.128 L 754.39 215.969 L 753.581 217.726 L 752.808 219.394 L 752.075 220.955 L 751.384 222.39 L 751.36 222.439 L 750.732 223.71 L 750.207 224.796 L 749.826 225.735 L 749.61 226.607 L 749.547 227.365 L 749.549 227.718 L 749.2 227.835 L 748.781 227.788 L 748.431 227.625 L 748.082 227.369 L 747.826 227.09 L 747.736 227.042 L 747.537 226.719 L 747.414 226.372 L 747.389 226 L 747.414 225.628 L 747.442 225.426 L 747.527 225.172 L 747.65 224.836 L 747.83 224.38 L 748.101 223.798 L 748.5 223.111 L 749.063 222.346 L 749.811 221.504 L 750.741 220.57 L 751.788 219.533 L 752.836 218.456 L 753.829 217.387 L 754.762 216.354 L 755.662 215.389 L 756.564 214.516 L 757.497 213.724 L 758.462 212.992 L 759.438 212.303 L 760.426 211.662 L 761.457 211.077 L 762.528 210.549 L 763.595 210.086 L 764.607 209.703 L 765.536 209.4 L 766.354 209.139 L 767.025 208.881 L 767.549 208.655 L 767.985 208.536 L 768.363 208.518 L 768.687 208.568 L 768.913 208.636 L 769.208 208.749 L 769.571 208.885 L 769.752 208.953 L 770.051 209.049 L 770.237 209.142 L 770.423 209.212 L 770.586 209.282 L 770.856 209.414 L 771.046 209.532 L 771.292 209.695 L 771.513 209.888 L 771.635 210.01 L 771.757 210.132 L 771.95 210.368 L 772.11 210.662 L 772.183 210.809 L 772.304 211.184 L 772.371 211.663 L 772.396 211.859 L 772.42 212.079 L 772.409 212.673 L 772.291 213.362 L 772.243 213.626 L 771.992 214.354 L 771.585 215.082 L 771.495 215.261 L 770.904 215.968 L 770.078 216.701 L 769.016 217.529 L 767.876 218.485 L 766.803 219.486 L 765.804 220.436 L 764.837 221.299 L 763.872 222.084 L 762.888 222.801 L 761.876 223.464 L 760.863 224.082 L 759.892 224.656 L 758.979 225.171 L 758.113 225.638 L 757.306 226.115 L 756.584 226.642 L 755.918 227.193 L 755.238 227.69 L 754.557 228.129 L 753.942 228.553 L 753.461 229.001 L 753.097 229.453 L 752.816 229.869 L 752.589 230.224 L 752.394 230.516 L 752.233 230.763 L 752.102 230.986 L 751.988 231.198 L 751.883 231.401 L 751.515 231.524 L 751.073 231.475 L 750.706 231.303 L 750.338 231.033 L 750.068 230.739 L 749.872 230.42 L 749.749 230.077 L 749.725 229.709 L 749.749 229.341 L 749.904 229.185 L 750.071 229.025 L 750.263 228.86 L 750.495 228.682 L 750.789 228.485 L 751.158 228.268 L 751.612 228.019 L 752.14 227.726 L 752.716 227.369 L 753.33 226.944 L 754.005 226.5 L 754.769 226.083 L 755.62 225.711 L 756.499 225.335 L 757.378 224.929 L 758.28 224.496 L 759.236 224.023 L 760.236 223.477 L 761.255 222.864 L 762.27 222.203 L 763.274 221.506 L 764.269 220.75 L 765.257 219.908 L 766.239 218.942 L 767.184 217.817 L 768.015 216.562 L 768.666 215.337 L 769.16 214.285 L 769.549 213.382 L 769.852 212.567 L 770.056 211.8 L 770.151 211.094 L 770.977 211.968 L 770.127 211.459 L 770.124 210.857 L 770.979 211.37 L 770.148 211.224 L 770.075 210.743 L 769.953 210.368 L 770.786 210.515 L 770.075 210.711 L 769.918 210.417 L 770.628 210.221 L 770.114 210.736 L 769.929 210.498 L 770.441 209.986 L 770.197 210.79 L 769.99 210.587 L 770.231 209.792 L 770.352 210.853 L 770.12 210.671 L 769.865 210.514 L 769.749 209.491 L 770.214 210.677 L 769.911 210.541 L 769.535 210.408 L 769.052 210.255 L 768.657 209.247 L 769.408 210.294 L 768.731 210.116 L 767.899 209.962 L 767.003 209.942 L 766.094 210.088 L 765.142 210.364 L 765.254 210.327 L 764.228 210.697 L 763.16 211.16 L 762.101 211.699 L 761.078 212.291 L 760.089 212.932 L 759.127 213.634 L 758.178 214.381 L 757.225 215.156 L 756.273 215.979 L 755.33 216.903 L 754.427 217.964 L 753.579 219.174 L 752.787 220.497 L 752.076 221.86 L 751.483 223.119 L 750.991 224.208 L 750.582 225.122 L 750.24 225.863 L 748.937 224.683 L 750.338 225.667 L 750.073 226.254 L 749.89 226.707 L 749.777 227.051 L 749.711 227.321 L 748.29 226.324 L 749.761 227.047 L 749.72 227.24 L 748.257 226.521 L 749.596 226.67 L 749.572 226.74 L 748.315 226.6 L 747.523 225.762 L 747.877 225.753 L 748.456 225.494 L 749.039 224.975 L 749.6 224.21 L 750.191 223.188 L 750.827 221.924 L 751.509 220.482 L 752.234 218.915 L 753.004 217.244 L 753.813 215.487 L 754.649 213.646 L 755.505 211.723 L 756.376 209.727 L 757.24 207.723 L 758.078 205.763 L 758.904 203.837 L 759.749 201.904 L 760.617 199.999 L 761.484 198.201 L 762.327 196.546 L 763.142 195.009 L 763.92 193.552 L 764.653 192.135 L 765.365 190.729 L 766.095 189.321 L 766.853 187.953 L 767.577 186.705 L 768.176 185.621 L 768.674 184.608 L 769.138 183.623 L 769.569 182.702 L 769.932 181.95 L 770.214 181.382 L 770.447 180.919 Z" style='fill:rgba(0,0,0,1); stroke:none' />

<path d="M 838.057 182.19 L 838.057 182.19 L 837.683 182.315 L 837.234 182.265 L 836.859 182.09 L 836.485 181.816 L 836.211 181.517 L 836.011 181.192 L 835.886 180.843 L 835.861 180.469 L 835.886 180.095 L 836.283 179.432 L 836.782 178.71 L 837.412 177.957 L 838.05 177.253 L 838.563 176.599 L 838.885 175.933 L 839.047 175.244 L 839.136 174.603 L 839.213 174.064 L 839.295 173.634 L 839.383 173.297 L 839.463 173.011 L 839.525 172.743 L 839.566 172.487 L 839.589 172.252 L 840.421 173.132 L 839.565 172.619 L 839.568 172.414 L 840.424 172.927 L 839.592 172.781 L 839.567 172.622 L 840.399 172.769 L 839.885 173.283 L 839.814 173.187 L 840.328 172.673 L 841.258 173.971 L 841.129 173.962 L 840.198 172.664 L 841.497 173.84 L 841.319 173.937 L 841.052 174.165 L 840.634 174.571 L 840.021 175.183 L 839.215 176.001 L 838.216 177.031 L 837.073 178.201 L 835.909 179.39 L 834.814 180.576 L 833.854 181.828 L 833.003 183.173 L 832.171 184.61 L 831.31 186.133 L 830.401 187.749 L 829.438 189.486 L 828.392 191.395 L 827.253 193.441 L 826.041 195.526 L 824.769 197.622 L 823.448 199.806 L 822.109 202.094 L 820.786 204.407 L 819.48 206.668 L 818.151 208.868 L 816.789 210.989 L 815.425 212.979 L 814.095 214.767 L 812.815 216.337 L 811.607 217.713 L 810.502 218.936 L 809.515 220.052 L 808.619 221.094 L 807.786 222.046 L 807.021 222.878 L 806.351 223.628 L 805.825 224.434 L 805.5 225.294 L 805.345 225.823 L 805.263 226.041 L 805.189 226.11 L 804.819 226.234 L 804.376 226.184 L 804.34 226.176 L 803.97 226.003 L 803.601 225.732 L 803.33 225.436 L 803.132 225.116 L 803.009 224.771 L 802.985 224.401 L 803.009 224.032 L 803.085 223.957 L 803.256 223.835 L 803.541 223.668 L 804.003 223.446 L 804.704 223.169 L 805.649 222.846 L 806.747 222.472 L 807.897 221.916 L 809.122 221.107 L 810.399 220.148 L 811.678 219.155 L 812.968 218.164 L 814.268 217.171 L 814.334 217.191 L 814.421 217.224 L 814.527 217.264 L 814.58 217.284 L 814.633 217.31 L 814.686 217.33 L 814.733 217.35 L 814.786 217.383 L 814.819 217.416 L 814.852 217.45 L 814.872 217.49 L 814.879 217.543 L 814.886 217.602 L 814.872 217.675 L 814.846 217.729 L 813.571 218.746 L 812.325 219.779 L 811.088 220.813 L 809.85 221.81 L 808.736 222.727 L 807.9 223.585 L 807.247 224.389 L 806.636 225.034 L 806.106 225.476 L 805.69 225.743 L 805.401 225.906 L 805.224 226.022 L 805.153 226.102 L 803.847 224.919 L 803.009 224.032 L 803.045 224.04 L 803.168 224.018 L 803.43 223.974 L 803.996 223.842 L 804.899 223.54 L 805.751 223.049 L 806.495 222.371 L 807.241 221.52 L 808.051 220.545 L 808.941 219.498 L 809.936 218.389 L 811.05 217.176 L 812.264 215.804 L 813.545 214.236 L 814.875 212.447 L 816.238 210.458 L 817.6 208.336 L 818.929 206.136 L 820.235 203.876 L 821.558 201.562 L 822.897 199.274 L 824.218 197.09 L 825.49 194.994 L 826.702 192.909 L 827.841 190.863 L 828.886 188.953 L 829.851 187.217 L 830.765 185.607 L 831.638 184.095 L 832.471 182.66 L 833.266 181.26 L 834.04 179.829 L 834.825 178.344 L 835.669 176.845 L 836.541 175.414 L 837.339 174.189 L 838.006 173.238 L 838.542 172.551 L 838.926 172.113 L 839.185 171.877 L 839.365 171.781 L 839.496 171.792 L 839.741 171.866 L 840.059 171.988 L 840.45 172.135 L 840.646 172.208 L 840.842 172.306 L 841.038 172.38 L 841.209 172.453 L 841.405 172.575 L 841.528 172.698 L 841.65 172.82 L 841.72 172.916 L 841.793 173.062 L 841.818 173.221 L 841.843 173.417 L 841.867 173.637 L 841.864 173.842 L 841.839 174.076 L 841.794 174.329 L 841.746 174.597 L 841.682 174.864 L 841.59 175.141 L 841.442 175.427 L 841.198 175.722 L 840.851 176.035 L 840.419 176.391 L 840 176.864 L 839.69 177.54 L 839.641 177.639 L 839.403 178.56 L 839.136 179.622 L 838.799 180.658 L 838.424 181.5 L 838.057 182.19 Z" style='fill:rgba(0,0,0,1); stroke:none' />

<path d="M 832.937 199.097 L 832.937 199.097 L 833.187 199.172 L 833.512 199.296 L 833.911 199.446 L 834.111 199.521 L 834.311 199.621 L 834.511 199.696 L 834.686 199.771 L 834.886 199.896 L 835.01 200.021 L 835.135 200.146 L 835.21 200.296 L 835.235 200.495 L 835.26 200.72 L 835.21 200.995 L 835.11 201.195 L 833.998 201.568 L 832.599 201.952 L 831.169 202.348 L 829.717 202.828 L 828.306 203.42 L 826.902 204.086 L 825.536 204.801 L 824.208 205.529 L 822.927 206.247 L 821.659 206.991 L 820.407 207.795 L 819.211 208.663 L 818.05 209.587 L 816.844 210.553 L 815.608 211.523 L 814.413 212.418 L 813.327 213.191 L 812.38 213.896 L 811.703 214.698 L 811.518 215.55 L 811.228 215.646 L 811.285 215.824 L 810.882 215.779 L 810.546 215.623 L 810.21 215.376 L 809.964 215.108 L 809.785 214.817 L 809.673 214.503 L 809.651 214.168 L 809.673 213.832 L 809.75 213.657 L 810.483 213.13 L 811.797 212.364 L 813.46 211.497 L 815.248 210.631 L 817.063 209.764 L 817.127 209.783 L 817.209 209.814 L 817.31 209.852 L 817.36 209.871 L 817.411 209.896 L 817.462 209.915 L 817.506 209.934 L 817.556 209.966 L 817.588 209.998 L 817.62 210.029 L 817.639 210.067 L 817.645 210.118 L 817.651 210.175 L 817.639 210.244 L 817.613 210.295 L 816.199 211.549 L 814.811 212.801 L 813.519 214.027 L 812.478 215.057 L 811.825 215.66 L 811.621 215.712 L 810.434 214.638 L 809.673 213.832 L 809.838 213.928 L 810.785 213.812 L 811.785 213.322 L 812.758 212.641 L 813.826 211.852 L 815.006 210.942 L 816.223 209.953 L 817.423 208.981 L 818.614 208.087 L 819.846 207.253 L 821.109 206.461 L 822.379 205.717 L 823.664 205.003 L 824.996 204.28 L 826.324 203.528 L 827.579 202.718 L 828.741 201.886 L 829.827 201.052 L 830.855 200.268 L 831.945 199.585 L 832.937 199.097 Z" style='fill:rgba(0,0,0,1); stroke:none' />

<path d="M 858.941 174.798 L 858.941 174.798 L 858.574 174.529 L 858.305 174.235 L 858.109 173.917 L 857.987 173.574 L 857.963 173.207 L 857.987 172.84 L 858.232 172.914 L 858.55 173.036 L 858.941 173.183 L 859.137 173.256 L 859.333 173.354 L 859.528 173.428 L 859.7 173.501 L 859.858 173.577 L 860.054 173.7 L 860.172 173.797 L 860.294 173.919 L 860.417 174.041 L 860.496 174.172 L 860.569 174.319 L 860.625 174.515 L 860.649 174.711 L 860.674 174.933 L 860.688 175.265 L 860.639 175.536 L 860.471 176.056 L 860.375 176.248 L 859.798 176.948 L 858.772 177.832 L 857.474 178.838 L 856.152 179.897 L 854.924 181.018 L 853.773 182.221 L 852.673 183.501 L 851.57 184.809 L 850.408 186.134 L 849.15 187.542 L 847.806 189.08 L 846.413 190.744 L 844.993 192.5 L 843.544 194.347 L 842.075 196.259 L 840.62 198.216 L 839.199 200.246 L 837.759 202.389 L 836.271 204.597 L 834.774 206.795 L 833.329 208.961 L 831.929 211.15 L 830.559 213.334 L 829.219 215.415 L 827.9 217.341 L 826.566 219.161 L 825.236 220.887 L 823.965 222.465 L 822.843 223.821 L 821.924 224.94 L 821.241 225.874 L 820.817 226.689 L 820.618 227.389 L 820.596 227.991 L 819.663 227.146 L 820.666 227.851 L 820.787 228.3 L 819.533 227.42 L 820.721 227.552 L 820.887 227.627 L 819.575 227.481 L 818.749 226.607 L 818.873 226.517 L 819.07 226.4 L 819.323 226.246 L 819.68 226.025 L 820.239 225.702 L 821.048 225.274 L 822.063 224.814 L 823.249 224.365 L 824.636 223.923 L 824.783 223.967 L 824.974 224.041 L 825.208 224.129 L 825.325 224.173 L 825.443 224.231 L 825.56 224.275 L 825.662 224.319 L 825.78 224.392 L 825.853 224.466 L 825.926 224.539 L 825.97 224.627 L 825.985 224.744 L 826 224.876 L 825.97 225.037 L 825.912 225.155 L 824.872 225.932 L 823.922 226.608 L 823.048 227.205 L 822.317 227.708 L 821.8 228.071 L 821.458 228.308 L 821.216 228.472 L 821.028 228.598 L 820.862 228.647 L 820.498 228.769 L 820.061 228.72 L 819.696 228.55 L 819.332 228.283 L 819.065 227.991 L 819.07 227.882 L 818.894 227.596 L 818.784 227.288 L 818.762 226.958 L 818.784 226.628 L 819.064 226.512 L 819.47 226.28 L 819.987 225.888 L 820.628 225.283 L 821.388 224.422 L 822.309 223.305 L 823.419 221.938 L 824.685 220.355 L 826.015 218.629 L 827.349 216.809 L 828.668 214.883 L 830.008 212.802 L 831.378 210.618 L 832.779 208.429 L 834.223 206.263 L 835.72 204.065 L 837.209 201.858 L 838.648 199.714 L 840.07 197.684 L 841.524 195.727 L 842.993 193.815 L 844.442 191.968 L 845.862 190.211 L 847.255 188.548 L 848.599 187.01 L 849.86 185.605 L 851.03 184.288 L 852.135 182.981 L 853.189 181.657 L 854.189 180.309 L 855.162 178.941 L 856.134 177.545 L 857.082 176.2 L 857.853 175.07 L 858.279 174.225 L 858.399 173.665 L 859.236 174.551 L 858.374 174.035 L 858.362 173.703 L 859.223 174.22 L 858.387 174.072 L 858.339 173.878 L 859.172 174.025 L 858.462 174.221 L 858.386 174.09 L 859.096 173.895 L 858.851 174.702 L 858.733 174.605 L 858.977 173.798 L 859.1 174.874 L 858.941 174.798 Z" style='fill:rgba(0,0,0,1); stroke:none' />

<path d="M 853.785 207.038 L 853.785 207.038 L 853.737 207.307 L 853.639 207.502 L 853.272 207.624 L 852.833 207.575 L 852.466 207.404 L 852.1 207.136 L 851.831 206.843 L 851.636 206.525 L 851.513 206.183 L 851.478 205.904 L 851.419 205.639 L 852.253 205.786 L 851.542 205.982 L 851.432 205.745 L 852.145 205.548 L 851.629 206.065 L 851.438 205.862 L 851.956 205.343 L 852.08 206.43 L 851.772 206.266 L 851.648 205.178 L 852.143 206.439 L 851.676 206.326 L 851.186 205.076 L 852.117 206.375 L 851.459 206.343 L 850.613 206.426 L 849.597 206.624 L 849.901 206.523 L 848.702 206.836 L 847.383 207.255 L 846.004 207.784 L 844.655 208.411 L 843.403 209.13 L 842.263 209.943 L 841.208 210.839 L 840.191 211.792 L 839.179 212.771 L 838.163 213.745 L 837.153 214.697 L 836.162 215.624 L 835.21 216.529 L 834.323 217.414 L 833.527 218.284 L 832.85 219.151 L 832.317 220.014 L 831.942 220.853 L 831.706 221.624 L 831.575 222.292 L 830.757 221.551 L 831.636 222.168 L 831.585 222.7 L 831.58 223.125 L 831.61 223.461 L 830.408 222.617 L 831.652 223.229 L 831.719 223.491 L 830.406 222.845 L 831.675 223.112 L 831.782 223.32 L 830.457 223.041 L 831.712 223.181 L 831.873 223.359 L 830.575 223.214 L 831.633 223.118 L 831.87 223.263 L 830.788 223.361 L 830.198 222.55 L 830.549 222.648 L 831.143 223.465 L 830.301 222.574 L 830.867 222.619 L 831.71 222.586 L 832.847 222.442 L 834.228 222.158 L 835.751 221.721 L 837.281 221.135 L 838.718 220.404 L 840.038 219.544 L 841.257 218.578 L 842.396 217.54 L 843.473 216.462 L 844.499 215.368 L 845.48 214.284 L 846.408 213.228 L 847.273 212.212 L 848.066 211.241 L 848.77 210.32 L 849.365 209.457 L 849.848 208.671 L 850.231 207.981 L 850.534 207.4 L 850.773 206.933 L 850.951 206.568 L 851.075 206.284 L 851.156 206.055 L 851.206 205.867 L 851.226 205.726 L 851.205 205.652 L 851.994 206.488 L 853.224 207.602 L 853.223 207.688 L 853.131 207.832 L 852.952 208.049 L 852.681 208.363 L 852.309 208.786 L 851.831 209.303 L 851.243 209.875 L 850.538 210.472 L 849.717 211.089 L 848.815 211.751 L 847.899 212.51 L 847.01 213.374 L 846.161 214.302 L 845.372 215.233 L 844.661 216.132 L 844.028 216.971 L 843.466 217.749 L 842.987 218.487 L 842.614 219.202 L 842.353 219.879 L 842.187 220.479 L 842.085 220.973 L 842.02 221.358 L 840.855 220.303 L 842.108 221.183 L 842.067 221.468 L 842.038 221.695 L 842.024 221.879 L 840.635 220.905 L 842.073 221.611 L 842.081 221.758 L 840.631 221.046 L 842.032 221.341 L 842.077 221.453 L 840.671 221.157 L 841.756 221.059 L 841.861 221.134 L 840.774 221.233 L 839.934 220.344 L 840.134 220.37 L 840.491 220.33 L 841.078 220.197 L 841.95 219.948 L 843.112 219.568 L 844.519 219.059 L 846.073 218.444 L 847.652 217.755 L 849.168 217.016 L 850.572 216.238 L 851.861 215.428 L 853.061 214.591 L 854.197 213.738 L 855.284 212.89 L 856.324 212.058 L 857.311 211.242 L 858.228 210.442 L 859.057 209.664 L 859.796 208.923 L 860.453 208.235 L 861.035 207.609 L 861.534 207.048 L 861.935 206.553 L 862.231 206.113 L 862.426 205.712 L 862.55 205.348 L 862.644 205.036 L 862.739 204.79 L 862.849 204.609 L 862.97 204.488 L 863.09 204.425 L 863.192 204.424 L 863.439 204.498 L 863.759 204.621 L 864.154 204.769 L 864.351 204.843 L 864.548 204.942 L 864.746 205.016 L 864.918 205.09 L 865.115 205.213 L 865.239 205.336 L 865.362 205.46 L 865.417 205.522 L 865.491 205.669 L 865.515 205.866 L 865.54 206.087 L 865.542 206.209 L 865.493 206.479 L 865.436 206.661 L 865.338 206.857 L 865.209 207.11 L 864.986 207.454 L 864.643 207.901 L 864.162 208.441 L 863.539 209.058 L 862.777 209.741 L 861.895 210.487 L 860.932 211.283 L 859.955 212.101 L 859.026 212.923 L 858.162 213.733 L 857.371 214.512 L 856.638 215.261 L 855.953 215.998 L 855.321 216.731 L 854.766 217.47 L 854.308 218.213 L 853.954 218.938 L 853.686 219.611 L 853.493 220.214 L 852.708 219.503 L 853.553 220.096 L 853.442 220.615 L 853.398 221.064 L 853.402 221.449 L 853.432 221.783 L 852.201 220.919 L 853.475 221.545 L 853.522 221.826 L 853.58 222.075 L 852.181 221.387 L 853.533 221.672 L 853.612 221.882 L 852.232 221.592 L 853.539 221.737 L 853.649 221.918 L 853.797 222.068 L 852.473 221.921 L 853.552 221.823 L 853.738 221.942 L 852.659 222.04 L 852.978 221.574 L 853.204 221.663 L 852.885 222.129 L 852.052 221.247 L 852.32 221.308 L 852.635 221.337 L 853.013 221.33 L 853.468 221.279 L 854.005 221.17 L 854.629 220.988 L 855.352 220.705 L 856.193 220.286 L 857.161 219.701 L 858.236 218.935 L 859.371 218.018 L 860.496 217.015 L 861.544 215.997 L 862.482 214.994 L 863.319 214.014 L 864.09 213.061 L 864.83 212.14 L 865.558 211.261 L 866.291 210.441 L 867.029 209.691 L 867.741 209.007 L 868.392 208.379 L 868.957 207.819 L 869.424 207.354 L 869.794 207.003 L 870.074 206.759 L 870.28 206.603 L 870.432 206.511 L 870.55 206.474 L 870.779 206.543 L 871.076 206.658 L 871.443 206.795 L 871.626 206.864 L 871.773 206.901 L 871.964 206.997 L 872.155 207.069 L 872.322 207.14 L 872.514 207.26 L 872.633 207.379 L 872.762 207.48 L 872.884 207.602 L 872.957 207.748 L 873.036 207.898 L 873.061 208.095 L 873.092 208.301 L 873.117 208.524 L 873.099 208.803 L 873.049 209.076 L 872.971 209.452 L 872.809 209.938 L 872.535 210.515 L 872.437 210.71 L 872.027 211.325 L 871.463 211.937 L 870.752 212.537 L 869.929 213.16 L 869.045 213.884 L 868.112 214.745 L 867.127 215.703 L 866.134 216.682 L 865.205 217.646 L 864.397 218.59 L 863.731 219.507 L 863.214 220.384 L 862.852 221.198 L 862.626 221.911 L 862.506 222.494 L 862.452 222.95 L 862.432 223.3 L 861.324 222.296 L 862.516 223.133 L 862.521 223.396 L 862.539 223.61 L 861.197 222.669 L 862.586 223.351 L 862.624 223.52 L 861.195 222.818 L 862.575 223.109 L 862.64 223.236 L 861.24 222.942 L 862.321 222.843 L 862.434 222.931 L 861.347 223.03 L 860.506 222.14 L 860.698 222.175 L 861.009 222.139 L 861.475 222.01 L 862.117 221.77 L 862.923 221.417 L 863.856 220.965 L 864.887 220.422 L 866.007 219.784 L 867.188 219.057 L 868.36 218.277 L 869.461 217.481 L 870.468 216.682 L 871.386 215.877 L 872.231 215.059 L 873.018 214.229 L 873.768 213.393 L 874.505 212.561 L 875.24 211.736 L 875.975 210.923 L 876.71 210.138 L 877.443 209.394 L 878.17 208.7 L 878.882 208.059 L 879.571 207.471 L 880.225 206.937 L 880.836 206.457 L 881.411 206.027 L 881.991 205.648 L 882.635 205.326 L 883.387 205.051 L 884.256 204.811 L 885.219 204.599 L 886.222 204.421 L 887.169 204.295 L 887.978 204.234 L 888.613 204.235 L 889.082 204.288 L 889.199 204.323 L 889.35 204.381 L 889.536 204.451 L 889.63 204.486 L 890.04 204.608 L 890.145 204.661 L 890.251 204.7 L 890.343 204.74 L 890.449 204.806 L 890.853 205.01 L 890.929 205.086 L 891.305 205.354 L 891.392 205.441 L 891.741 205.774 L 892.041 206.164 L 892.105 206.293 L 892.343 206.757 L 892.499 207.293 L 892.522 207.48 L 892.545 207.69 L 892.598 208.298 L 892.534 208.957 L 892.352 209.651 L 892.311 209.881 L 892.023 210.589 L 891.627 211.332 L 891.555 211.477 L 891.041 212.254 L 890.375 213.092 L 889.534 214.004 L 888.527 214.974 L 887.42 215.946 L 886.3 216.879 L 885.212 217.76 L 884.155 218.591 L 883.116 219.375 L 882.09 220.101 L 881.076 220.751 L 880.082 221.316 L 879.143 221.807 L 878.3 222.235 L 877.573 222.599 L 877.401 222.656 L 876.758 222.957 L 876.22 223.184 L 875.781 223.347 L 875.439 223.469 L 875.185 223.573 L 874.997 223.672 L 874.84 223.755 L 874.44 223.71 L 874.262 223.756 L 874.094 223.764 L 873.95 223.74 L 873.58 223.567 L 873.48 223.523 L 873.11 223.251 L 872.838 222.954 L 872.64 222.633 L 872.61 222.577 L 872.486 222.231 L 872.462 221.86 L 872.486 221.488 L 872.547 221.422 L 872.703 221.342 L 872.976 221.238 L 873.407 221.099 L 874.037 220.919 L 874.873 220.701 L 875.889 220.446 L 877.034 220.134 L 878.27 219.743 L 879.557 219.277 L 880.828 218.765 L 882.015 218.239 L 883.092 217.715 L 884.067 217.205 L 884.97 216.711 L 885.83 216.225 L 886.661 215.734 L 887.466 215.225 L 888.24 214.685 L 888.981 214.109 L 889.693 213.512 L 890.383 212.913 L 891.045 212.312 L 891.679 211.699 L 892.293 211.072 L 892.895 210.439 L 893.485 209.82 L 894.053 209.219 L 894.59 208.634 L 895.079 208.059 L 895.505 207.497 L 895.862 206.958 L 896.147 206.447 L 896.357 205.967 L 896.491 205.515 L 896.562 205.091 L 896.594 204.701 L 896.612 204.351 L 896.621 204.04 L 897.443 204.91 L 896.597 204.402 L 896.588 204.133 L 897.449 204.65 L 896.612 204.503 L 896.572 204.262 L 897.411 204.41 L 896.695 204.608 L 896.61 204.393 L 897.325 204.196 L 896.807 204.713 L 896.669 204.53 L 897.186 204.014 L 897.309 205.095 L 897.114 204.956 L 896.991 203.875 L 897.482 205.128 L 897.227 205.044 L 896.734 203.787 L 897.67 205.093 L 897.341 205.075 L 896.918 205.134 L 896.395 205.282 L 895.467 203.988 L 896.761 205.16 L 896.122 205.407 L 895.37 205.762 L 894.516 206.245 L 893.595 206.877 L 892.681 207.672 L 891.847 208.579 L 891.148 209.511 L 890.596 210.413 L 890.63 210.344 L 890.207 211.213 L 889.889 212.053 L 889.66 212.871 L 889.508 213.668 L 889.008 213.317 L 889.525 213.571 L 889.45 214.346 L 889.453 215.115 L 889.545 215.879 L 888.882 215.554 L 889.522 215.688 L 889.703 216.425 L 889.967 217.143 L 890.293 217.827 L 889.457 217.651 L 890.249 217.739 L 890.63 218.371 L 891.078 218.94 L 890.244 218.847 L 891.001 218.863 L 891.529 219.361 L 890.752 219.345 L 891.449 219.282 L 892.046 219.71 L 891.328 219.775 L 891.916 219.629 L 892.557 219.991 L 893.215 220.291 L 892.609 220.442 L 892.828 220.123 L 893.485 220.367 L 893.269 220.683 L 892.87 220.135 L 893.535 220.338 L 893.924 220.873 L 893.373 220.29 L 894.029 220.452 L 894.66 220.572 L 895.267 220.655 L 895.859 220.717 L 896.439 220.763 L 897 220.789 L 897.526 220.794 L 898.011 220.785 L 898.456 220.767 L 898.875 220.745 L 899.089 220.809 L 899.367 220.916 L 899.71 221.045 L 899.881 221.109 L 900.053 221.195 L 900.224 221.259 L 900.374 221.323 L 900.545 221.431 L 900.652 221.538 L 900.759 221.645 L 900.824 221.773 L 900.845 221.945 L 900.867 222.137 L 900.824 222.373 L 900.738 222.544 L 900.417 222.652 L 899.945 222.607 L 899.446 222.559 L 898.905 222.498 L 898.32 222.421 L 897.706 222.329 L 897.39 222.294 L 896.774 222.192 L 896.151 222.078 L 895.52 221.957 L 894.886 221.833 L 894.248 221.699 L 893.601 221.53 L 892.946 221.301 L 892.289 220.993 L 892.039 220.876 L 891.41 220.493 L 891.165 220.314 L 890.594 219.868 L 890.09 219.357 L 889.92 219.172 L 889.494 218.598 L 889.373 218.401 L 889.032 217.769 L 888.784 217.088 L 888.715 216.895 L 888.568 216.2 L 888.501 215.486 L 888.49 215.318 L 888.492 214.603 L 888.503 214.45 L 888.573 213.733 L 888.71 213.001 L 888.908 212.243 L 889.162 211.446 L 889.472 210.599 L 889.85 209.693 L 890.32 208.712 L 890.891 207.656 L 891.54 206.571 L 892.213 205.542 L 892.864 204.65 L 893.486 203.943 L 894.079 203.435 L 894.637 203.109 L 895.138 202.933 L 895.56 202.873 L 895.896 202.9 L 896.142 202.974 L 896.401 203.064 L 896.721 203.186 L 897.114 203.334 L 897.31 203.408 L 897.507 203.506 L 897.704 203.58 L 897.876 203.653 L 898.072 203.776 L 898.267 203.916 L 898.39 204.039 L 898.513 204.161 L 898.655 204.343 L 898.729 204.491 L 898.819 204.706 L 898.852 204.946 L 898.877 205.142 L 898.901 205.364 L 898.869 205.611 L 898.763 205.854 L 898.717 206.108 L 898.535 206.322 L 898.282 206.528 L 897.988 206.766 L 897.923 206.898 L 897.621 207.188 L 897.308 207.568 L 896.977 208.035 L 896.623 208.576 L 896.237 209.176 L 895.812 209.813 L 895.334 210.456 L 894.788 211.078 L 894.164 211.665 L 893.474 212.212 L 892.75 212.734 L 892.02 213.253 L 891.284 213.783 L 890.528 214.319 L 889.749 214.851 L 888.96 215.38 L 888.17 215.905 L 887.372 216.42 L 886.552 216.922 L 885.696 217.412 L 884.781 217.895 L 883.78 218.38 L 882.684 218.884 L 881.51 219.425 L 880.313 220.006 L 879.174 220.615 L 878.169 221.229 L 877.32 221.828 L 876.601 222.369 L 875.99 222.804 L 875.494 223.113 L 875.121 223.31 L 874.863 223.427 L 874.703 223.504 L 874.639 223.567 L 873.328 222.379 L 874.664 222.528 L 874.692 222.584 L 873.357 222.435 L 874.247 222.213 L 874.344 222.261 L 873.457 222.482 L 872.619 221.595 L 872.779 221.645 L 872.987 221.703 L 873.239 221.776 L 873.528 221.856 L 873.849 221.922 L 874.211 221.952 L 874.643 221.94 L 875.17 221.886 L 875.813 221.788 L 876.576 221.637 L 877.444 221.408 L 878.39 221.08 L 879.387 220.645 L 880.416 220.114 L 881.467 219.5 L 882.528 218.807 L 883.581 218.038 L 884.618 217.186 L 885.632 216.233 L 886.612 215.166 L 887.536 214.017 L 888.362 212.872 L 889.046 211.809 L 889.582 210.846 L 889.979 209.956 L 890.254 209.111 L 890.412 208.295 L 890.467 207.512 L 891.223 208.313 L 890.445 207.846 L 890.422 207.14 L 891.232 207.627 L 890.445 207.488 L 890.372 206.872 L 890.271 206.347 L 891.046 206.484 L 890.385 206.666 L 890.26 206.207 L 890.116 205.813 L 890.684 205.656 L 890.273 206.067 L 890.087 205.702 L 890.453 205.336 L 890.279 205.911 L 890.033 205.572 L 890.185 205.071 L 890.261 205.739 L 889.934 205.439 L 889.868 204.859 L 890.132 205.531 L 889.711 205.301 L 889.195 205.173 L 888.98 204.624 L 889.39 205.195 L 888.745 205.182 L 887.973 205.29 L 887.096 205.501 L 886.172 205.778 L 885.28 206.078 L 884.451 206.365 L 883.889 205.583 L 884.672 206.292 L 883.895 206.542 L 883.143 206.761 L 882.404 206.985 L 881.687 207.279 L 881.002 207.687 L 880.339 208.212 L 879.678 208.827 L 878.996 209.498 L 878.279 210.201 L 877.523 210.924 L 876.747 211.669 L 875.969 212.44 L 875.198 213.23 L 874.424 214.026 L 873.631 214.821 L 872.814 215.623 L 871.98 216.451 L 871.129 217.321 L 870.247 218.24 L 869.32 219.204 L 868.353 220.182 L 867.388 221.117 L 866.476 221.956 L 865.632 222.679 L 864.852 223.279 L 864.155 223.738 L 863.581 224.044 L 863.218 224.165 L 862.78 224.328 L 862.478 224.376 L 862.033 224.326 L 861.841 224.29 L 861.47 224.117 L 861.099 223.845 L 860.994 223.753 L 860.724 223.458 L 860.527 223.138 L 860.404 222.794 L 860.371 222.673 L 860.347 222.309 L 860.374 222.175 L 860.397 221.822 L 860.476 221.688 L 860.613 221.543 L 860.816 221.371 L 861.101 221.138 L 861.478 220.802 L 861.946 220.324 L 862.49 219.685 L 863.099 218.898 L 863.783 217.996 L 864.554 217.017 L 865.41 215.984 L 866.326 214.93 L 867.234 213.898 L 868.042 212.916 L 868.698 211.972 L 869.214 211.052 L 869.643 210.179 L 870.008 209.375 L 870.314 208.661 L 870.55 208.052 L 870.709 207.563 L 870.794 207.192 L 870.818 206.917 L 871.659 207.807 L 870.818 207.659 L 870.794 207.455 L 871.632 207.603 L 870.917 207.8 L 870.856 207.651 L 871.565 207.455 L 871.321 208.261 L 871.223 208.144 L 871.462 207.355 L 871.94 208.574 L 871.786 208.466 L 871.328 207.299 L 872.198 208.512 L 871.98 208.425 L 871.718 208.38 L 870.959 207.322 L 872.018 208.28 L 871.674 208.304 L 871.247 208.405 L 870.717 208.602 L 870.084 208.908 L 869.378 209.33 L 868.631 209.866 L 867.862 210.496 L 867.07 211.193 L 866.263 211.942 L 865.461 212.75 L 864.68 213.63 L 863.915 214.59 L 863.154 215.643 L 862.38 216.805 L 861.573 218.055 L 860.713 219.313 L 859.825 220.469 L 858.95 221.428 L 858.129 222.156 L 857.382 222.665 L 856.713 223 L 856.353 223.12 L 855.753 223.33 L 855.227 223.452 L 854.776 223.509 L 854.399 223.518 L 854.084 223.489 L 853.643 223.44 L 853.376 223.38 L 853.149 223.291 L 852.781 223.119 L 852.595 223 L 852.228 222.73 L 852.085 222.578 L 851.817 222.285 L 851.621 221.967 L 851.531 221.785 L 851.41 221.447 L 851.375 221.245 L 851.352 220.89 L 851.373 220.683 L 851.396 220.34 L 851.467 220.142 L 851.582 219.929 L 851.74 219.679 L 851.944 219.365 L 852.204 218.969 L 852.533 218.498 L 852.947 217.966 L 853.449 217.383 L 854.017 216.747 L 854.628 216.062 L 855.276 215.344 L 855.958 214.604 L 856.672 213.837 L 857.422 213.019 L 858.198 212.124 L 858.972 211.151 L 859.724 210.117 L 860.437 209.079 L 861.083 208.105 L 861.651 207.235 L 862.138 206.487 L 862.54 205.87 L 862.849 205.391 L 863.065 205.04 L 863.197 204.79 L 863.257 204.612 L 864.093 205.496 L 863.233 204.98 L 863.229 204.858 L 864.089 205.374 L 863.843 206.185 L 863.784 206.125 L 864.03 205.312 L 864.967 206.619 L 864.871 206.627 L 863.931 205.315 L 865.242 206.503 L 865.12 206.563 L 864.965 206.652 L 864.764 206.745 L 864.498 206.826 L 864.158 206.9 L 863.763 207.003 L 863.343 207.186 L 862.903 207.488 L 862.429 207.913 L 861.895 208.44 L 861.281 209.035 L 860.572 209.673 L 859.764 210.346 L 858.868 211.06 L 857.905 211.816 L 856.893 212.608 L 855.841 213.428 L 854.749 214.271 L 853.615 215.126 L 852.437 215.984 L 851.221 216.865 L 849.975 217.795 L 848.706 218.772 L 847.415 219.74 L 846.139 220.623 L 844.958 221.35 L 843.955 221.883 L 843.609 221.998 L 842.813 222.341 L 842.26 222.516 L 841.913 222.569 L 841.468 222.519 L 841.268 222.493 L 840.897 222.32 L 840.527 222.048 L 840.425 221.971 L 840.154 221.675 L 839.956 221.355 L 839.833 221.01 L 839.796 220.898 L 839.771 220.53 L 839.782 220.393 L 839.806 220.027 L 839.859 219.875 L 839.956 219.705 L 840.108 219.512 L 840.332 219.281 L 840.641 218.986 L 841.035 218.606 L 841.503 218.129 L 842.025 217.558 L 842.6 216.913 L 843.239 216.21 L 843.952 215.447 L 844.723 214.606 L 845.524 213.687 L 846.316 212.704 L 847.044 211.685 L 847.676 210.651 L 848.224 209.646 L 848.732 208.729 L 849.225 207.927 L 849.703 207.248 L 850.142 206.693 L 850.509 206.266 L 850.791 205.963 L 850.993 205.767 L 851.128 205.665 L 851.205 205.652 L 851.437 205.722 L 851.739 205.838 L 852.11 205.977 L 852.296 206.047 L 852.481 206.139 L 852.667 206.209 L 852.83 206.279 L 853.015 206.395 L 853.131 206.511 L 853.247 206.627 L 853.317 206.766 L 853.34 206.952 L 853.363 207.161 L 853.317 207.416 L 853.224 207.602 L 853.134 207.569 L 852.978 207.578 L 852.78 207.623 L 852.558 207.716 L 852.312 207.883 L 852.027 208.144 L 851.685 208.511 L 851.266 208.98 L 850.751 209.542 L 850.134 210.198 L 849.429 210.956 L 848.661 211.815 L 847.838 212.757 L 846.961 213.762 L 846.029 214.813 L 845.044 215.895 L 844.014 216.984 L 842.934 218.059 L 841.798 219.101 L 840.611 220.098 L 839.382 221.046 L 838.128 221.952 L 836.877 222.808 L 835.68 223.559 L 835.43 223.643 L 834.301 224.24 L 833.355 224.618 L 832.616 224.781 L 832.083 224.777 L 831.638 224.727 L 831.28 224.615 L 830.911 224.443 L 830.695 224.272 L 830.335 224.008 L 830.07 223.719 L 829.969 223.529 L 829.783 223.227 L 829.667 222.902 L 829.649 222.712 L 829.626 222.378 L 829.669 222.174 L 829.69 221.858 L 829.793 221.633 L 829.97 221.351 L 830.233 220.996 L 830.591 220.547 L 831.044 219.985 L 831.585 219.308 L 832.214 218.537 L 832.936 217.714 L 833.754 216.865 L 834.655 215.992 L 835.612 215.093 L 836.603 214.165 L 837.608 213.209 L 838.618 212.229 L 839.623 211.244 L 840.628 210.279 L 841.649 209.35 L 842.706 208.458 L 843.817 207.602 L 844.97 206.786 L 846.113 206.029 L 847.177 205.364 L 848.138 204.821 L 848.999 204.432 L 849.745 204.224 L 850.353 204.194 L 850.808 204.289 L 851.055 204.363 L 851.376 204.486 L 851.772 204.635 L 851.97 204.709 L 852.167 204.808 L 852.365 204.882 L 852.538 204.956 L 852.845 205.121 L 853.043 205.245 L 853.166 205.368 L 853.29 205.492 L 853.474 205.696 L 853.548 205.843 L 853.651 206.08 L 853.705 206.344 L 853.729 206.54 L 853.754 206.76 L 853.785 207.038 Z" style='fill:rgba(0,0,0,1); stroke:none' />

<path d="M 599.603 186.334 L 599.603 186.334 L 599.849 186.408 L 600.169 186.531 L 600.562 186.679 L 600.759 186.752 L 600.956 186.851 L 601.153 186.925 L 601.325 186.998 L 601.522 187.121 L 601.645 187.244 L 601.768 187.367 L 601.841 187.515 L 601.866 187.712 L 601.891 187.933 L 601.841 188.204 L 601.743 188.4 L 600.791 188.753 L 599.295 189.204 L 597.43 189.625 L 595.346 189.862 L 595.173 189.92 L 593.338 190.18 L 591.564 190.595 L 589.677 191.025 L 587.648 191.385 L 585.543 191.661 L 583.356 191.884 L 581.144 192.109 L 581.03 192.097 L 580.935 192.053 L 580.84 191.983 L 580.77 191.907 L 580.72 191.825 L 580.688 191.736 L 580.682 191.641 L 580.688 191.546 L 582.9 191.321 L 585.086 191.097 L 587.191 190.821 L 589.226 190.467 L 591.13 190.058 L 592.851 189.579 L 594.343 188.893 L 595.792 188.044 L 597.329 187.305 L 598.678 186.712 L 599.603 186.334 Z" style='fill:rgba(0,0,0,1); stroke:none' />

<path d="M 311.622 699.442 L 311.866 699.516 L 312.184 699.638 L 312.576 699.785 L 312.772 699.858 L 312.967 699.956 L 313.163 700.03 L 313.334 700.103 L 313.53 700.225 L 313.652 700.348 L 313.775 700.47 L 313.848 700.617 L 313.873 700.812 L 313.897 701.033 L 313.848 701.302 L 313.75 701.497 L 313.383 701.62 L 312.943 701.571 L 312.576 701.4 L 312.209 701.13 L 311.94 700.837 L 311.744 700.519 L 311.622 700.176 L 311.597 699.809 L 311.622 699.442 Z" style='fill:rgba(0,0,0,1); stroke:none' />



</svg>